<?xml version="1.0" encoding="UTF-8"?><svg id="Calque_1" xmlns="http://www.w3.org/2000/svg" xmlns:xlink="http://www.w3.org/1999/xlink" viewBox="0 0 84.8 88"><defs><style>.cls-1{fill:none;}.cls-2{clip-path:url(#clippath);}.cls-3{fill:#9b844f;}</style><clipPath id="clippath"><rect class="cls-1" width="84.8" height="88"/></clipPath></defs><g id="Groupe_7"><g id="Groupe_6"><g class="cls-2"><g id="Groupe_5"><path id="Tracé_9" class="cls-3" d="M40.3,50.9h16.1c13.3,0,24.1,10.8,24.1,24.1v11.1c0,1-.8,1.8-1.8,1.8s-1.8-.8-1.8-1.8h0v-11.2c0-11.3-9.2-20.4-20.5-20.5H24.1c-11.3,0-20.4,9.2-20.5,20.5v11.2c0,1-.8,1.8-1.8,1.8s-1.8-.8-1.8-1.8v-11.2c0-13.3,10.8-24.1,24.1-24.1h2.5c-13-7.5-17.5-24.2-9.9-37.2,1.2-2.1,2.7-4,4.3-5.6l.1-.1c10.7-10.6,28-10.5,38.6,.2,5,5.1,7.9,12,7.9,19.2,0,1-.8,1.8-1.8,1.8s-1.8-.8-1.8-1.8h0c0-13.1-10.5-23.6-23.6-23.6-6.2,0-12.2,2.5-16.6,6.8l-.1,.1c-9.2,9.2-9.2,24.1,0,33.4,4.2,4.3,10.3,6.9,16.6,6.9Zm35.8-2c0,1-.8,1.8-1.8,1.8s-1.8-.8-1.8-1.8v-6.8h-6.8c-1,0-1.8-.8-1.8-1.8s.8-1.8,1.8-1.8h6.8v-6.8c0-1,.8-1.8,1.8-1.8s1.8,.8,1.8,1.8h0v6.8h6.8c1,0,1.8,.8,1.8,1.8s-.8,1.8-1.8,1.8h-6.8v6.8Z"/></g></g></g></g></svg>