<?xml version="1.0" encoding="UTF-8"?><svg id="Calque_1" xmlns="http://www.w3.org/2000/svg" viewBox="0 0 65.2 83.22"><defs><style>.cls-1{fill:#fff;}.cls-1,.cls-2{stroke:#000;stroke-miterlimit:10;stroke-width:.5px;}.cls-2{fill:none;}</style></defs><path class="cls-1" d="M18.81,62.14c-12.96-9.42-13.87-4.68-13.87-4.68l.73,.34,12.15,9.13,.99-4.79h0Z"/><g><polygon class="cls-1" points="34.32 32.24 31.87 32.24 29.45 32.24 28.31 33.26 31.87 36.8 35.46 33.26 34.32 32.24"/><polyline class="cls-2" points="31.87 32.24 33.46 33.28 33.98 32.24 35.46 33.26 31.87 33.28"/><line class="cls-2" x1="31.87" y1="36.8" x2="33.46" y2="33.28"/><polyline class="cls-2" points="31.87 32.24 30.28 33.28 29.79 32.24 28.31 33.26 31.87 33.28"/><line class="cls-2" x1="31.87" y1="36.8" x2="30.31" y2="33.28"/></g><path class="cls-1" d="M31.87,35.16c-4.06,0-7.34,3.49-7.34,7.75s3.28,7.75,7.34,7.75,7.34-3.49,7.34-7.75-3.28-7.75-7.34-7.75Zm0,14.21c-3.23,0-5.83-2.6-5.83-5.83s2.63-5.83,5.83-5.83,5.83,2.6,5.83,5.83-2.6,5.83-5.83,5.83Z"/><path class="cls-1" d="M4.27,61.33l10.93,7.28,2.39-3.54-1.74-.94C1.69,53.71,1.46,59.04,1.46,59.04l2.81,2.29"/><path class="cls-1" d="M39.89,69.45s-8.35,2.06-11.21,2.13c-2.86,.08-12.31-2.73-12.31-2.73,0,0-1.2-1.67-.13-4.5,1.07-2.84,6.06-1.87,10.36-1.01,4.32,.86,6.92-1.04,6.92-1.04,0,0,3.69-3.41,6.66-3.43,5.96-.05,7.78,3.15,7.78,3.15l11.92,1.48s6.24,9.21,.29,17.77c0,0-10.25-5.72-18.11-3.12s-12.1,4.4-12.1,4.4c0,0-2.52,1.56-6.97-1.25s-10.43-7.44-13.22-9.6c-2.78-2.13-9.42-7.57-9.42-7.57,0,0-1.22-4.89,5.44-2.24,2.11,.83,10.36,5.88,10.36,5.88"/><g><path class="cls-1" d="M46.39,21.08c12.96,9.42,13.87,4.68,13.87,4.68l-.73-.34-12.15-9.13-.99,4.79h0Z"/><path class="cls-1" d="M60.96,21.86l-10.93-7.28-2.39,3.54,1.74,.94c14.15,10.43,14.39,5.1,14.39,5.1l-2.81-2.29"/><path class="cls-1" d="M25.32,13.77s8.35-2.06,11.21-2.13,12.31,2.73,12.31,2.73c0,0,1.2,1.64,.13,4.5-1.07,2.84-6.06,1.87-10.36,1.01-4.32-.86-6.92,1.04-6.92,1.04,0,0-3.69,3.41-6.66,3.43-5.96,.05-7.78-3.15-7.78-3.15l-11.92-1.48S-.91,10.52,5.05,1.96c0,0,10.25,5.72,18.11,3.12S35.25,.68,35.25,.68c0,0,2.52-1.56,6.97,1.25s10.43,7.44,13.22,9.6c2.78,2.13,9.42,7.57,9.42,7.57,0,0,1.22,4.89-5.44,2.24-2.11-.83-10.36-5.88-10.36-5.88"/></g></svg>