<?xml version="1.0" encoding="UTF-8"?><svg id="Calque_1" xmlns="http://www.w3.org/2000/svg" viewBox="0 0 80 80"><defs><style>.cls-1{fill:#fff;}</style></defs><path d="M80,40C80,17.91,62.09,0,40,0S0,17.91,0,40c0,19.97,14.63,36.51,33.75,39.51v-27.95h-10.16v-11.56h10.16v-8.81c0-10.03,5.97-15.56,15.11-15.56,4.38,0,8.95,.78,8.95,.78v9.84h-5.04c-4.97,0-6.52,3.08-6.52,6.25v7.5h11.09l-1.77,11.56h-9.32v27.95c19.12-3,33.75-19.55,33.75-39.51Z"/><path class="cls-1" d="M55.57,51.56l1.77-11.56h-11.09v-7.5c0-3.16,1.55-6.25,6.52-6.25h5.04v-9.84s-4.58-.78-8.95-.78c-9.14,0-15.11,5.54-15.11,15.56v8.81h-10.16v11.56h10.16v27.95c2.04,.32,4.12,.49,6.25,.49s4.21-.17,6.25-.49v-27.95h9.32Z"/></svg>