<?xml version="1.0" encoding="UTF-8"?><svg id="Calque_1" xmlns="http://www.w3.org/2000/svg" viewBox="0 0 70.45 69.5"><defs><style>.cls-1{fill:#fff;stroke:#000;stroke-miterlimit:10;stroke-width:2px;}</style></defs><polygon class="cls-1" points="35.07 2.84 33.61 9.92 27.99 11.14 27.99 15.03 21.15 13.07 21.15 10.4 16.53 11.62 18.47 15.03 18.47 19.43 13.83 19.43 11.15 16.73 1.4 19.43 4.32 25.81 15.31 30.06 20.43 41.87 18.23 56.76 15.05 59.92 26.77 65.54 31.89 65.54 42.62 68.22 42.62 62.62 47.26 58.46 55.32 60.66 60.92 61.38 67.75 53.82 63.86 50.9 63.38 41.39 61.9 37.23 59.22 35.53 63.38 28.97 66.3 26.27 65.32 23.55 68.97 16.99 59.96 14.29 52.88 11.62 47.5 6.98 40.51 1.12 35.07 2.84"/><path d="M35.02,30.32h0c-.24-.07-.37-.13-.57-.26,0,0-.17-.13-.22-.24,.22-.3,.3-.54,.41-.87,.11-.37,.15-.83,.15-1.37,0-.48-.09-.96-.24-1.39-.11-.35-.3-.68-.54-.96-.35-.44-.68-.74-1.02-.96-.35-.2-.72-.37-1.13-.48-.37-.11-.76-.15-1.15-.17-.54-.02-1.05,.04-1.05,.04-.26,.04-.5,.09-.7,.15-.61,.2-1.07,.44-1.42,.7s-.63,.59-.87,.96c-.24,.39-.41,.74-.52,1.07s-.15,.7-.15,1.13c0,.52,.09,1,.24,1.44,.15,.44,.39,.83,.7,1.2s.61,.63,.89,.83c.15,.11,.24,.15,.44,.24,0,0,.02,.41-.48,.96,.11-.09,.2-.17,.28-.28,.09-.09,.17-.2,.24-.33,.13-.24,.22-.48,.24-.76t-.02-.04h0c-1.2-.85-1.81-2.4-1.61-3.81,.07-.35,.15-.7,.28-1.02,.15-.33,.33-.63,.57-.89,.24-.26,.5-.5,.78-.68,.3-.17,.63-.3,.96-.41,.35-.09,.7-.11,1.05-.09s.7,.11,1.02,.24,.63,.3,.89,.52c.28,.22,.5,.48,.72,.76,.2,.28,.37,.61,.48,.94,.04,.17,.11,.33,.15,.5s.07,.35,.09,.52c.07,.7-.09,1.42-.39,2.05h0s-.02,.13,0,.17c.07,.13,.17,.26,.26,.35s.22,.2,.33,.26c.13,.07,.17,.11,.37,.2l-.24,.13c-.2,.11-.41,.2-.63,.28-.22,.09-.44,.15-.63,.17-.22,.02-.41,0-.52-.13h0s-.04-.04-.09-.04c-.09-.02-.15,.02-.17,.11-.02,.13-.07,.24-.11,.37s-.09,.24-.13,.37c-.17,.44-.33,.59-.33,.59-.28-.13-.33-.15-.61-.35-.22-.15-.39-.33-.59-.5h0s-.02-.02-.04-.02c-.04,0-.09,.02-.09,.07-.04,.2-.22,.35-.44,.44s-.44,.15-.65,.2c-.24,.04-.46,.07-.7,.09s-.48,.02-.7,.02c.48,.04,.94,.04,1.42,0,.24-.02,.48-.07,.7-.15,.11-.04,.2-.09,.33-.17,0,0,.11-.07,.17-.2,.2,.22,.26,.28,.48,.46s.46,.33,.72,.41c.04,.02,.09,0,.13-.02h0c.2-.22,.33-.46,.46-.7,.07-.13,.11-.26,.15-.39,0,0,.04-.11,.07-.17,0,0,.07,.04,.17,.07,.13,.04,.26,.04,.39,.02,.26-.02,.5-.09,.72-.17,.24-.09,.46-.17,.68-.28s.44-.22,.63-.35c.04-.02,.07-.07,.09-.11,.07-.09,.02-.2-.09-.22h0Z"/><circle cx="22.48" cy="27.69" r=".28"/><circle cx="38.7" cy="27.69" r=".28"/></svg>