<?xml version="1.0" encoding="UTF-8"?><svg id="Calque_1" xmlns="http://www.w3.org/2000/svg" viewBox="0 0 80 80"><defs><style>.cls-1{fill:#fff;}</style></defs><circle cx="40" cy="40" r="40"/><g><path class="cls-1" d="M40,19.35c6.72,0,7.52,.03,10.18,.15,2.46,.11,3.79,.52,4.68,.87,1.18,.46,2.01,1,2.9,1.88,.88,.88,1.43,1.72,1.88,2.9,.34,.89,.76,2.22,.87,4.68,.12,2.66,.15,3.45,.15,10.18s-.03,7.52-.15,10.18c-.11,2.46-.52,3.79-.87,4.68-.46,1.18-1,2.01-1.88,2.9-.88,.88-1.72,1.43-2.9,1.88-.89,.34-2.22,.76-4.68,.87-2.66,.12-3.45,.15-10.18,.15s-7.52-.03-10.18-.15c-2.46-.11-3.79-.52-4.68-.87-1.18-.46-2.01-1-2.9-1.88-.88-.88-1.43-1.72-1.88-2.9-.34-.89-.76-2.22-.87-4.68-.12-2.66-.15-3.45-.15-10.18s.03-7.52,.15-10.18c.11-2.46,.52-3.79,.87-4.68,.46-1.18,1-2.01,1.88-2.9,.88-.88,1.72-1.43,2.9-1.88,.89-.34,2.22-.76,4.68-.87,2.66-.12,3.45-.15,10.18-.15m0-4.54c-6.84,0-7.7,.03-10.38,.15-2.68,.12-4.51,.55-6.11,1.17-1.66,.64-3.06,1.5-4.46,2.9-1.4,1.4-2.26,2.8-2.9,4.46-.62,1.6-1.05,3.43-1.17,6.11-.12,2.69-.15,3.54-.15,10.38s.03,7.7,.15,10.38c.12,2.68,.55,4.51,1.17,6.11,.64,1.66,1.5,3.06,2.9,4.46,1.4,1.4,2.8,2.26,4.46,2.9,1.6,.62,3.43,1.05,6.11,1.17,2.69,.12,3.54,.15,10.38,.15s7.7-.03,10.38-.15c2.68-.12,4.51-.55,6.11-1.17,1.66-.64,3.06-1.5,4.46-2.9,1.4-1.4,2.26-2.8,2.9-4.46,.62-1.6,1.05-3.43,1.17-6.11,.12-2.69,.15-3.54,.15-10.38s-.03-7.7-.15-10.38c-.12-2.68-.55-4.51-1.17-6.11-.64-1.66-1.5-3.06-2.9-4.46-1.4-1.4-2.8-2.26-4.46-2.9-1.6-.62-3.43-1.05-6.11-1.17-2.69-.12-3.54-.15-10.38-.15h0Z"/><path class="cls-1" d="M40,27.07c-7.14,0-12.93,5.79-12.93,12.93s5.79,12.93,12.93,12.93,12.93-5.79,12.93-12.93-5.79-12.93-12.93-12.93Zm0,21.33c-4.64,0-8.4-3.76-8.4-8.4s3.76-8.4,8.4-8.4,8.4,3.76,8.4,8.4-3.76,8.4-8.4,8.4Z"/><circle class="cls-1" cx="53.44" cy="26.56" r="3.02"/></g></svg>