<?xml version="1.0" encoding="UTF-8"?><svg id="Calque_1" xmlns="http://www.w3.org/2000/svg" viewBox="0 0 80 80"><defs><style>.cls-1{fill:#fdfdfd;}</style></defs><circle cx="40" cy="40" r="40"/><g><path class="cls-1" d="M43.1,34.54c.66-.74,1.2-1.49,1.87-2.12,2.07-1.96,4.53-2.94,7.39-2.92,1.57,.01,3.13,.13,4.65,.57,3.47,1,5.49,3.39,6.45,6.79,.72,2.54,.85,5.15,.86,7.77,0,5.53-.02,11.05,0,16.58,0,.52-.14,.65-.65,.65-2.85-.02-5.69-.02-8.54,0-.5,0-.61-.15-.61-.62,.02-5.26,.02-10.52,0-15.77,0-1.32-.09-2.63-.46-3.92-.68-2.36-2.37-3.56-4.84-3.43-3.38,.18-5.13,1.85-5.56,5.28-.1,.82-.15,1.64-.15,2.47,0,5.11,0,10.23,.01,15.34,0,.51-.13,.66-.65,.66-2.87-.03-5.73-.02-8.6,0-.46,0-.59-.12-.59-.59,.01-10.12,.01-20.25,0-30.37,0-.5,.16-.62,.64-.61,2.72,.02,5.45,.02,8.17,0,.5,0,.63,.16,.62,.63-.03,1.21,0,2.42,0,3.63Z"/><path class="cls-1" d="M27.5,46.11c0,5.01,0,10.02,.01,15.03,0,.56-.14,.72-.71,.72-2.85-.03-5.69-.02-8.54,0-.46,0-.59-.11-.59-.58,.01-10.14,.01-20.28,0-30.42,0-.42,.1-.57,.55-.57,2.89,.02,5.77,.02,8.66,0,.55,0,.63,.21,.63,.69-.01,5.05,0,10.1,0,15.15Z"/><path class="cls-1" d="M28.28,20.23c0,3.14-2.55,5.71-5.69,5.71-3.1,0-5.67-2.56-5.68-5.66-.01-3.13,2.56-5.71,5.69-5.7,3.11,0,5.67,2.56,5.67,5.65Z"/></g></svg>