<?xml version="1.0" encoding="UTF-8"?><svg id="Calque_1" xmlns="http://www.w3.org/2000/svg" xmlns:xlink="http://www.w3.org/1999/xlink" viewBox="0 0 91.41 30.2"><defs><style>.cls-1{fill:none;}.cls-2{clip-path:url(#clippath);}.cls-3{fill:#9b844f;}.cls-4{clip-path:url(#clippath-1);}</style><clipPath id="clippath"><rect class="cls-1" width="91.41" height="15.03"/></clipPath><clipPath id="clippath-1"><rect class="cls-1" x="22.47" y="18.97" width="46.48" height="11.23"/></clipPath></defs><g id="Groupe_2"><g class="cls-2"><g id="Groupe_1"><path id="Tracé_1" class="cls-3" d="M0,1.3v-.5c1.1,0,1.9-.05,2.45-.1,.2,0,.35-.05,.4-.05h.3c.3,.25,.6,.55,.85,.85,.05,.05,.1,.15,.2,.2l2.25,2.5,.3,.4c.45,.55,.9,1,1.25,1.4,.4,.4,1.1,1.15,2.2,2.35l2.55,2.85c.25,.3,.55,.6,.95,1.05v-.15c-.05-1-.05-1.5-.05-1.6l.05-.65v-1.45c0-.3,0-1.2-.05-2.7,0-.2-.05-.6-.1-1.15s-.05-1.1-.05-1.5c.05-.45,0-.95-.15-1.4-.25-.15-.6-.25-.9-.3-.15,0-.35-.05-.6-.05-.2,0-.4,0-.55-.05-.05-.05-.15-.1-.15-.2s.05-.2,.1-.3c.2-.05,.4-.1,.55-.1,.25,0,.5,.05,.75,.1s.55,.05,.8,.1c.35,0,.85,0,1.55-.05,.4-.05,.65-.05,.8-.05h.2v.35c-.15,.05-.3,.1-.5,.1s-.4,.05-.55,.1c-.15,.05-.3,.1-.45,.2-.15,.15-.25,.35-.25,.55l.1,3.39,.1,1.55v.45l.05,2.15c.05,1.45,.05,2.75,.05,3.84,0,.25,0,.75-.05,1.55l-.5,.05c-.25-.3-1.1-1.2-2.6-2.7-.35-.35-.55-.6-.7-.75l-.95-1.05c-.35-.4-.6-.65-.7-.75s-.2-.2-.25-.25c-.8-.9-1.8-2-3.05-3.34-.35-.35-.85-.9-1.5-1.65-.4-.45-.65-.75-.8-.9-.15-.15-.3-.25-.45-.35l-.05,.35c0,1.4,.05,3.29,.1,5.74l.1,3.54c0,.3,.05,.6,.05,.85l.4,.1c.7,.05,1.35,.15,2,.3,.05,.05,.1,.05,.15,.1v.4c-.1,.05-.2,.05-.3,.05h-.3c-.7-.05-1.55-.1-2.6-.1-.7,0-1.35,0-1.9,.05H.1v-.3l.3-.15,.5-.05c.35-.05,.65-.1,1-.2,.15-.05,.25-.1,.35-.2,.1-.7,.15-1.45,.1-2.15,0-.45,0-1.25-.05-2.45V4.69c.05-.8,0-1.6-.15-2.4-.05-.15-.15-.25-.25-.35-.3-.2-.7-.35-1.05-.35-.25-.2-.55-.25-.85-.3"/><path id="Tracé_2" class="cls-3" d="M16.52,14.03c.1-.05,.15-.1,.25-.1h.5c.35,0,.65-.05,1-.15,.3-.15,.5-.4,.65-.7,.5-1,.9-2.05,1.25-3.1,.2-.65,.35-1.05,.4-1.15,.2-.45,.35-.9,.5-1.35l1-2.8c.15-.45,.55-1.45,1.15-3.05,.15-.4,.35-.95,.55-1.6h.7c.3,.65,.6,1.3,.8,1.95,.15,.35,.35,.9,.65,1.65l1.6,4.39,.85,2.4c.45,1.35,.75,2.2,.9,2.5,.1,.25,.25,.45,.4,.6,.1,.05,.25,.1,.4,.15,.25,.05,.4,.1,.5,.15,.25,.05,.45,.15,.7,.25,0,.05,.05,.1,.05,.2,0,.05,0,.1-.05,.15h-.5c-.35,0-1,0-1.95-.05l-1.05-.05h-2.05c-.1,0-.15-.05-.2-.05,0-.1,0-.2,.05-.3,.1-.05,.15-.05,.25-.05l1.1-.05c.25,0,.45-.05,.65-.1,.05-.1,.05-.2,.05-.3-.05-.35-.15-.7-.3-1-.1-.35-.25-.7-.35-1s-.5-1.4-1.15-3.2c-.25-.05-.5-.05-.75-.1h-2.95c-.25,0-.55,0-.8,.05-.1,.2-.15,.35-.2,.45l-.95,2.95c-.25,.6-.45,1.2-.6,1.85,0,.1,.05,.2,.1,.3,.2,.05,.4,.1,.6,.1l1.45,.15c.1,.05,.1,.1,.1,.15s0,.1-.05,.15h-.75c-.6,0-1.25,0-2-.05h-2.05c-.15,0-.4,0-.65-.05h0c.15-.05,.15-.1,.2-.2m5.09-6.39c.75,.05,1.65,.05,2.6,.05,.55,0,1.05,0,1.45-.05-.05-.25-.15-.55-.25-.8-.45-1.25-.7-1.95-.75-2.05l-1-2.45-.1-.2c-.05,.1-.2,.45-.45,1.1-.45,1.1-.8,2-1,2.6-.1,.3-.2,.55-.3,.85-.1,.2-.15,.4-.2,.6,0,.1-.05,.25-.1,.35h.1Z"/><path id="Tracé_3" class="cls-3" d="M44.93,1.4l.1,1.65c.05,.5,.05,.85,.05,1l-.3,.05c-.4-.95-1-1.8-1.8-2.45-.75-.55-1.65-.85-2.6-.8-1-.05-2,.1-2.95,.45-1.1,.5-2,1.3-2.6,2.3-.75,1.15-1.1,2.55-1.1,3.89,0,.8,.1,1.6,.4,2.35,.25,.7,.65,1.35,1.1,1.95,.5,.6,1.05,1.15,1.7,1.55,.45,.3,1,.55,1.55,.65,.5,.1,1,.15,1.5,.1,.5,0,.95-.05,1.4-.2,.4-.1,.85-.25,1.2-.5,.25-.2,.45-.4,.55-.7,.1-.5,.15-1,.15-1.5,0-1.25-.1-1.95-.25-2.15s-.7-.35-1.55-.4l-.45-.05h-.3s-.1,0-.15-.05l-.15-.25s.05-.1,.1-.15c.8-.1,1.6-.1,2.4-.1h1.35l1.1,.05h1.7s.05,0,.1,.05c0,.05,.05,.05,0,.1,0,.1,0,.2-.05,.3-.25,.05-.45,.1-.7,.1h-.7c-.2,0-.4,.1-.55,.25-.1,.25-.15,.55-.1,.8v1.4c.05,.6,0,1.25-.1,1.85-.05,.15-.15,.3-.25,.45-.25,.2-.55,.35-.85,.45-.55,.25-1.1,.4-1.7,.5-.9,.15-1.8,.25-2.75,.25-1.2,.05-2.35-.15-3.49-.55-.85-.35-1.65-.85-2.35-1.5-.6-.55-1.05-1.2-1.4-1.95-.4-.95-.65-1.95-.65-2.95,0-1.3,.35-2.55,1-3.64,.75-1.3,1.85-2.3,3.2-2.9,1.35-.6,2.8-.85,4.19-.8,1-.05,2.05,.1,3,.3,.8,.25,1.4,.5,2,.8"/><path id="Tracé_4" class="cls-3" d="M63.65,.6h.5c.2,0,.6,0,1.2,.05,.95,.05,1.8,.05,2.45,.05h1.25c.2,0,.35,0,.5,.05,.05,.05,.05,.1,.05,.2v.1l-.25,.15h-1c-.2,0-.4,.05-.6,.15-.1,.05-.15,.15-.2,.25,0,.15,.05,.25,.15,.35,.05,.05,.1,.15,.15,.25,.2,.3,.35,.6,.55,.85,.35,.45,.7,1.05,1.05,1.65,.15,.25,.3,.5,.45,.75l1.65,2.45c.1-.15,.25-.35,.45-.6l1.55-2.2,1.8-2.65c.1-.15,.2-.35,.3-.55v-.2c0-.15-.05-.3-.2-.35-.45-.2-.95-.35-1.45-.35-.05,0-.1,0-.2-.05-.05-.05-.05-.15-.05-.2v-.15h.55l2,.05,1.6-.05h.45l-.05,.4s-.15,.05-.25,.05l-.25,.05h-.2c-.1,.05-.25,.1-.35,.2-.95,1-1.85,2.05-2.7,3.15-.75,1-1.35,1.9-1.85,2.7-.15,.25-.3,.45-.4,.6-.15,.15-.25,.35-.35,.55-.1,.4-.15,.85-.1,1.25-.05,1.3,0,2.65,.1,3.94,.05,.2,.1,.3,.15,.35,.7,.2,1.45,.3,2.2,.35v.1c0,.1-.05,.2-.05,.3l-2.75-.1-1.85,.1h-1.95s-.05-.1-.05-.15,0-.1,.05-.15,.1-.05,.15-.05l1.4-.2c.3-.05,.55-.2,.8-.3,.1-.1,.15-.25,.15-.4v-3c0-.4,0-.85-.05-1.25-.1-.3-.25-.55-.45-.8l-1.4-2.15-2.4-3.49c-.3-.45-.65-.9-1.1-1.2-.3-.15-.65-.2-1-.2h-.25l.1-.65h0Z"/><path id="Tracé_5" class="cls-3" d="M76.63,14.03c.1-.05,.15-.1,.25-.1h.5c.35,0,.65-.05,.95-.15,.3-.15,.5-.4,.65-.7,.5-1,.9-2.05,1.25-3.1,.2-.65,.35-1.05,.4-1.15,.2-.45,.35-.9,.5-1.35l1-2.8c.15-.45,.55-1.45,1.15-3.05,.15-.4,.35-.95,.55-1.6h.7c.3,.65,.6,1.3,.8,1.95,.15,.35,.35,.9,.65,1.65l1.65,4.39,.85,2.4c.45,1.35,.75,2.2,.9,2.5,.1,.25,.2,.45,.4,.6,.1,.05,.25,.1,.4,.15,.25,.05,.4,.1,.5,.15,.25,.05,.45,.15,.7,.25,.05,.05,.05,.1,.05,.2,0,.05,0,.1-.05,.15h-.5c-.35,0-1,0-1.95-.05l-1.05-.05h-2s-.15-.05-.2-.05c0-.1,0-.2,.05-.3,.05-.05,.15-.05,.25-.05l1.1-.05c.2,0,.45-.05,.65-.1,.05-.1,.05-.2,.05-.3-.05-.35-.15-.7-.3-1-.15-.35-.25-.7-.35-1s-.45-1.4-1.15-3.2c-.25-.05-.5-.05-.8-.1h-3c-.25,0-.55,0-.8,.05-.1,.2-.15,.35-.2,.45l-.95,2.95c-.25,.6-.45,1.2-.6,1.85,0,.1,.05,.2,.1,.3,.2,.05,.4,.1,.6,.1l1.45,.15c.1,.05,.1,.1,.1,.15s0,.1-.05,.15h-.75c-.55,0-1.25,0-2-.05h-2.1c-.15,0-.4,0-.65-.05h0c.25-.05,.25-.1,.3-.2m5.09-6.39c.75,.05,1.65,.05,2.6,.05,.55,0,1.05,0,1.45-.05-.05-.25-.15-.55-.25-.8-.45-1.25-.7-1.95-.75-2.05l-.95-2.45-.1-.2c-.05,.1-.2,.45-.45,1.1-.45,1.1-.8,2-1,2.6-.1,.3-.2,.55-.3,.85-.05,.2-.15,.4-.2,.6-.05,.1-.05,.25-.1,.35h.05Z"/><path id="Tracé_6" class="cls-3" d="M63.4,11.23h0c-.35-.1-.65-.2-.9-.4-.15-.1-.25-.25-.35-.4,.3-.45,.5-.9,.65-1.4,.2-.7,.3-1.45,.25-2.2,0-.8-.15-1.55-.4-2.3-.2-.55-.5-1.1-.85-1.55-.45-.6-1-1.15-1.65-1.55-.6-.35-1.2-.6-1.85-.8-.6-.15-1.25-.25-1.85-.3-.55,0-1.15,0-1.7,.1-.4,.05-.75,.15-1.15,.25-.8,.25-1.6,.6-2.3,1.1-.55,.45-1.05,.95-1.4,1.6-.35,.55-.65,1.15-.85,1.75-.15,.6-.25,1.2-.25,1.85,0,.8,.1,1.6,.4,2.3,.25,.7,.65,1.35,1.15,1.95,.4,.5,.9,.95,1.45,1.35,.2,.15,.45,.3,.7,.4-.05,.6-.35,1.15-.75,1.55,.15-.15,.3-.3,.45-.45,.15-.15,.25-.35,.4-.5,.2-.4,.35-.8,.4-1.25t-.05-.05h0c-2.45-1.8-3.34-5.04-2.15-7.84,.25-.55,.55-1,.9-1.45,.4-.45,.8-.8,1.3-1.1s1-.5,1.55-.65c1.1-.25,2.3-.2,3.34,.25,.55,.2,1,.5,1.45,.85s.85,.8,1.15,1.25c.35,.45,.6,.95,.8,1.5,.1,.3,.2,.55,.25,.8,.3,1.4,.15,2.9-.5,4.14h0c-.05,.1-.05,.2,0,.3,.1,.2,.25,.4,.45,.6,.15,.15,.35,.3,.55,.45,.2,.1,.4,.2,.6,.3l-.4,.2c-.35,.15-.65,.35-1,.45-.35,.15-.7,.25-1.05,.3-.3,.05-.6,0-.85-.2h0c-.1-.1-.25-.1-.35-.05-.05,.05-.05,.1-.1,.1-.05,.2-.1,.4-.15,.6-.05,.2-.15,.4-.2,.6-.15,.35-.3,.65-.55,.95-.35-.15-.65-.35-.95-.55-.35-.25-.65-.5-.95-.8h0s-.15-.05-.2,0c0,0-.05,.05-.05,.1-.1,.35-.35,.6-.7,.7-.35,.15-.7,.25-1.1,.3-.4,.05-.75,.1-1.15,.1-.4,.05-.75,.05-1.15,.05,.75,.1,1.55,.1,2.3,0,.4-.05,.8-.15,1.15-.25,.2-.05,.35-.15,.55-.3,.1-.1,.2-.2,.3-.3,.25,.25,.5,.5,.8,.7,.35,.3,.75,.5,1.15,.7,.05,.05,.15,0,.2-.05h0c.3-.35,.55-.75,.75-1.15,.1-.2,.2-.4,.25-.6,.1-.3,.05-.15,.1-.3,.1,.05,.2,.1,.3,.1,.2,.05,.45,.05,.65,.05,.4-.05,.8-.15,1.2-.3,.35-.15,.75-.3,1.1-.45s.7-.35,1.05-.55c.15-.1,.2-.3,.1-.4-.15-.15-.2-.2-.3-.2"/></g></g></g><g id="Groupe_24"><g class="cls-4"><g id="Groupe_22"><path id="Tracé_243" class="cls-3" d="M28.01,20.27c-1.05,.1-1.15,.15-1.35,1.2l-1,5.19c-.35,1.8-.85,2.75-1.95,3.29-.35,.2-.75,.3-1.15,.3l-.1-.4c1.35-.35,1.75-1.15,2.2-3.44l.95-4.94c.2-1.05,.1-1.05-1.05-1.2l.1-.35h3.44l-.1,.35h0Z"/><path id="Tracé_244" class="cls-3" d="M32.8,24.51c0,1.4-.65,2.7-1.8,3.44-.5,.3-1.05,.5-1.6,.5-1.25,0-1.75-1-1.75-2.05-.05-1.5,.75-2.95,2.1-3.64,.4-.2,.85-.35,1.35-.35,1.05,.05,1.65,.8,1.7,2.1m-4.09,1.8c0,.95,.35,1.6,1.1,1.6,1.25,0,1.9-2,1.9-3.39,0-1.1-.45-1.55-1.1-1.55-1.3,.05-1.9,2-1.9,3.34"/><path id="Tracé_245" class="cls-3" d="M39.39,27.16c-.65,.85-1.45,1.3-1.8,1.3s-.5-.3-.3-1.5l.2-.9c-.4,.65-.95,1.25-1.55,1.75-.35,.35-.85,.55-1.35,.6-.45,0-.85-.55-.85-1.6,0-1.25,.55-2.5,1.45-3.39,.65-.65,1.55-1,2.5-1.05,.5,.05,1,.1,1.5,.2-.25,.8-.7,2.8-.95,4.29-.05,.35-.05,.5,.05,.5,.15,0,.45-.15,.9-.65l.2,.45h0Zm-2.35-1.1c.35-.45,.6-1,.75-1.55,.1-.4,.2-.85,.3-1.3-.3-.15-.65-.2-1-.2-1.55,0-2.25,1.95-2.25,3.64,0,.5,.15,.85,.4,.85,.4,.05,1-.35,1.8-1.45"/><path id="Tracé_246" class="cls-3" d="M42.78,27.21c-.4,.65-1.1,1.1-1.85,1.3-.35,0-.5-.35-.25-1.4,.2-.85,.55-2.25,.8-3.29,.05-.25,.05-.35-.05-.35-.35,.1-.6,.3-.85,.6l-.15-.35c.6-.65,1.5-1.2,1.9-1.2,.35,0,.35,.45,.1,1.4-.25,.95-.55,2.25-.8,3.15-.1,.35-.1,.5,0,.5,.4-.1,.7-.35,.95-.65l.2,.3h0Zm.35-6.79c0,.4-.3,.75-.7,.75h0c-.3,0-.55-.25-.55-.55v-.05c0-.4,.3-.75,.75-.75,.3,0,.55,.25,.55,.55t-.05,.05"/><path id="Tracé_247" class="cls-3" d="M46.23,27.16c-.65,.85-1.5,1.35-1.9,1.35-.35,0-.5-.25-.25-1.5,.45-2.2,.95-4.54,1.4-6.54,.1-.5,.05-.55-.4-.6-.15,0-.4-.05-.5-.05l.1-.35c.55-.05,1.05-.15,1.6-.3,.1-.05,.25-.1,.4-.1,.1,0,.1,.1,.05,.4-.6,2.5-1.2,5.44-1.65,7.59-.1,.35-.05,.5,.05,.5,.4-.15,.7-.35,.95-.7l.15,.3h0Z"/><path id="Tracé_248" class="cls-3" d="M49.52,27.16c-.65,.85-1.5,1.35-1.9,1.35-.35,0-.5-.25-.25-1.5,.45-2.2,.95-4.54,1.4-6.54,.1-.5,.05-.55-.4-.6-.15,0-.4-.05-.5-.05l.1-.35c.55-.05,1.05-.15,1.6-.3,.1-.05,.25-.1,.4-.1,.1,0,.1,.1,.05,.4-.6,2.5-1.2,5.44-1.65,7.59-.1,.35-.05,.5,.05,.5,.4-.15,.7-.35,.95-.7l.15,.3h0Z"/><path id="Tracé_249" class="cls-3" d="M51.97,28.46c-.6,0-1.45-.35-1.45-1.95,0-1.3,.55-2.55,1.55-3.39,.5-.4,1.1-.65,1.75-.7,.6-.05,1.1,.35,1.15,.95v.1c0,1.3-1.9,1.9-3.34,2.15,0,.15-.05,.4-.05,.55,0,.75,.2,1.5,1,1.5,.75-.1,1.45-.45,1.9-1.05l.2,.3c-1,1.3-2.05,1.55-2.7,1.55m-.3-3.2c1.9-.35,2.35-.95,2.35-1.55,.05-.35-.2-.65-.55-.7h-.1c-.45,0-1.35,.3-1.7,2.25"/><path id="Tracé_250" class="cls-3" d="M55.77,23.71c.65-.75,1.35-1.25,1.7-1.25,.45,0,.4,.7,.15,1.8l-.1,.35c.7-1.2,1.6-2.15,2.1-2.15,.35,0,.6,.25,.6,.6-.05,.35-.25,.65-.5,.85-.1,.1-.2,.1-.3,0-.15-.15-.25-.4-.45-.4-.3,0-.95,.9-1.25,1.45-.45,1.05-.8,2.15-.95,3.25-.3,.05-.65,.15-.95,.25l-.1-.1c.3-1.2,.75-3.15,.95-4.09,.15-.7,.1-.85,0-.85-.35,.1-.6,.3-.85,.6l-.05-.3h0Z"/><path id="Tracé_251" class="cls-3" d="M63.35,27.21c-.4,.65-1.1,1.1-1.85,1.3-.35,0-.5-.35-.25-1.4,.2-.85,.55-2.25,.8-3.29,.05-.25,.05-.35-.05-.35-.35,.1-.6,.3-.85,.6l-.15-.35c.6-.65,1.5-1.2,1.9-1.2,.35,0,.35,.45,.1,1.4-.25,.95-.55,2.25-.8,3.15-.1,.35-.1,.5,0,.5,.35-.1,.7-.35,.95-.65l.2,.3h0Zm.35-6.79c0,.4-.3,.75-.7,.75h0c-.3,0-.55-.25-.55-.55v-.05c0-.4,.3-.75,.75-.75,.3,0,.55,.25,.55,.55t-.05,.05"/><path id="Tracé_252" class="cls-3" d="M65.95,28.46c-.6,0-1.45-.35-1.45-1.95,0-1.3,.55-2.55,1.55-3.39,.5-.4,1.1-.65,1.75-.7,.55-.05,1.1,.35,1.15,.95v.1c0,1.3-1.9,1.9-3.34,2.15,0,.15-.05,.4-.05,.55,0,.75,.2,1.5,1,1.5,.75-.1,1.45-.45,1.95-1.05l.2,.3c-1.05,1.3-2.1,1.55-2.75,1.55m-.3-3.2c1.9-.35,2.3-.95,2.35-1.55,.05-.35-.2-.65-.55-.7h-.1c-.45,0-1.35,.3-1.7,2.25"/></g></g></g></svg>