<?xml version="1.0" encoding="UTF-8"?><svg id="Calque_1" xmlns="http://www.w3.org/2000/svg" xmlns:xlink="http://www.w3.org/1999/xlink" viewBox="0 0 91 100"><defs><style>.cls-1{fill:none;}.cls-2{clip-path:url(#clippath);}.cls-3{fill:#9b844f;}</style><clipPath id="clippath"><rect class="cls-1" width="91" height="100"/></clipPath></defs><g id="Groupe_7"><g id="Groupe_4"><g class="cls-2"><g id="Groupe_3"><path id="Tracé_7" class="cls-3" d="M41.8,42.2h8.4c.6,0,1.1-.5,1.1-1.2s-.5-1.2-1.1-1.2h-8.4c-.6,0-1.1,.5-1.1,1.2-.1,.7,.4,1.2,1.1,1.2"/><path id="Tracé_8" class="cls-3" d="M4,93c0,3.8,2.9,6.9,6.5,6.9H80.6c3.6,0,6.5-3.1,6.5-6.9l4-53.7v-.1c0-4.5-3.4-8-7.5-8h-13.6c-.3-1.5-1.1-2.8-2.3-3.7v-4.2C67.7,10.4,57.9-.1,45.8-.1S23.9,10.3,23.9,23.3v4c-1.3,.8-2.3,2.2-2.6,3.9H7.6C3.4,31.2,.1,34.8,.1,39.2v.1l3.9,53.7Zm25.2,4.5H10.4c-2.3,0-4.2-2-4.2-4.5l-1.3-18H29.2v22.5Zm55.5-4.5c0,2.5-1.9,4.5-4.2,4.5H31.5v-22.5h54.6l-1.4,18Zm-17.2-61.8h-7.3c.4-1.3,1.6-2.2,3-2.2h1.3c1.3,0,2.5,.9,3,2.2h0Zm-9.6,0h-24.7c-.3-1.8-1.4-3.2-3-4v-3.4c0-9.1,6.9-16.5,15.4-16.5s15.4,7.4,15.4,16.5v3.3c-1.6,.7-2.7,2.3-3.1,4.1h0Zm-31.8-7.8c0-11.6,8.8-20.9,19.6-20.9s19.6,9.4,19.6,20.9v3.2c-.2,0-.5-.1-.7-.1h-1.1v-2.8c0-10.4-7.9-18.9-17.7-18.9S28.1,13.3,28.1,23.7v2.8h-1.9l-.1-3.1h0Zm.6,5.6h1.3c1.3,0,2.5,.9,3,2.2h-7.3c.4-1.3,1.6-2.2,3-2.2-.1,0,0,0,0,0Zm-19.1,4.6H83.5c2.9,0,5.2,2.5,5.2,5.6l-2.5,33.4H4.7L2.2,39.2c.1-3.1,2.4-5.6,5.4-5.6h0Z"/></g></g></g></g></svg>