<?xml version="1.0" encoding="UTF-8"?><svg id="Calque_1" xmlns="http://www.w3.org/2000/svg" viewBox="0 0 61.06 78.81"><defs><style>.cls-1{fill:none;}.cls-1,.cls-2{stroke:#000;stroke-miterlimit:10;stroke-width:2px;}</style></defs><path class="cls-1" d="M57.98,1H3.08C1.94,1,1,1.94,1,3.08V39.51c0,1.15,.94,2.08,2.08,2.08H57.98c1.15,0,2.08-.94,2.08-2.08V3.06c0-1.15-.94-2.06-2.08-2.06h0ZM26.76,26.44v-10.31l9.35,5.14-9.35,5.16Z"/><g><path class="cls-2" d="M33.18,61.28l-5.91,6.21c-2.08,2.19-5.04,2.59-6.57,.94l-10.69-11.65c-1.53-1.68-1.11-4.85,.98-7.01l5.91-6.21"/><line class="cls-2" x1="17.47" y1="44.19" x2="32.64" y2="60.7"/><line class="cls-2" x1="18.24" y1="45.02" x2="15.52" y2="42.07"/><line class="cls-2" x1="35.45" y1="63.77" x2="31.41" y2="59.37"/><path class="cls-2" d="M47.29,76.64l.96-1c.19-.19,.19-.51,0-.7l-6.04-6.59c-1.3-1.4-1.4-.47-2.57-1.72-1.06-1.13-.47-1.59-1.68-2.91l-.43-.45c-.45-.47-1.17-.49-1.62-.02l-.47,.51-.47,.51c-.45,.47-.45,1.25-.02,1.72l.43,.45c1.21,1.32,1.66,.68,2.7,1.85,1.15,1.28,.26,1.38,1.55,2.78l6.04,6.59c.19,.19,.47,.19,.66,0l.96-1.02h0Z"/></g><g><path class="cls-2" d="M44.91,56.75c-2.72-2.76-1.28-2.36-4.36-5.46l-14.32-14.39c-.51-.49-.89-.62-1.13-.43l-1.02,1.02-1.02,1.02c-.21,.23-.06,.62,.43,1.13l14.32,14.39c3.08,3.08,2.68,1.66,5.44,4.38"/><path class="cls-2" d="M56.51,70.37l1.04-1c.19-.19,.21-.51,.02-.7l-6.44-6.67c-1.38-1.42-1.51-.49-2.74-1.74-1.13-1.15-.49-1.62-1.79-2.95l-.45-.47c-.47-.49-1.25-.49-1.72-.02l-.51,.51-.51,.51c-.49,.47-.49,1.25-.02,1.72l.45,.47c1.3,1.34,1.79,.7,2.89,1.87,1.21,1.3,.28,1.38,1.66,2.81l6.44,6.67c.19,.19,.51,.21,.7,.02l.98-1.02h0Z"/></g></svg>