<?xml version="1.0" encoding="UTF-8"?><svg id="Calque_1" xmlns="http://www.w3.org/2000/svg" viewBox="0 0 80.37 74.17"><defs><style>.cls-1{fill:#fff;}.cls-1,.cls-2{stroke-width:2px;}.cls-1,.cls-2,.cls-3{stroke:#000;stroke-miterlimit:10;}.cls-2,.cls-3{fill:none;}</style></defs><g><g><polygon class="cls-1" points="2.79 64.71 1.03 51.91 11.97 24.4 57.24 9.36 73.94 24.4 79.34 38.14 77.58 48.85 49.64 73.17 14.4 73.17 2.79 64.71"/><polyline class="cls-1" points="57.24 9.36 57.69 21.73 73.94 24.4"/><line class="cls-2" x1="11.97" y1="24.4" x2="14.4" y2="33.71"/><polyline class="cls-1" points="2.79 64.71 11.27 59.14 14.4 33.71 57.69 21.73"/><line class="cls-2" x1="14.4" y1="73.17" x2="11.27" y2="59.14"/></g><polyline class="cls-1" points="49.64 73.17 59.94 56.27 70.23 41.25 57.69 21.73"/><line class="cls-2" x1="70.23" y1="41.25" x2="79.34" y2="38.14"/></g><path class="cls-3" d="M20.33,20.98s.72-6.46,4.12-8.24c-3.4-1.78-4.12-8.24-4.12-8.24,0,0-.72,6.46-4.12,8.24,3.4,1.76,4.12,8.24,4.12,8.24Z"/><path class="cls-3" d="M31.16,30.19s.41-2.99,2.31-3.81c-1.9-.82-2.31-3.81-2.31-3.81,0,0-.41,2.99-2.31,3.81,1.9,.84,2.31,3.81,2.31,3.81Z"/></svg>