<?xml version="1.0" encoding="UTF-8"?><svg id="Calque_1" xmlns="http://www.w3.org/2000/svg" viewBox="0 0 70.59 82.94"><defs><style>.cls-1,.cls-2{stroke:#000;stroke-miterlimit:10;}.cls-2{fill:none;}</style></defs><g><path class="cls-2" d="M25.2,56.4l-10.41-.1c-3.66-.02-6.65-2.32-6.62-5.08l.17-19.19c.02-2.76,3.04-5,6.72-4.95l10.41,.1"/><line class="cls-2" x1="25.45" y1="28.22" x2="25.22" y2="55.45"/><line class="cls-2" x1="25.45" y1="29.61" x2="25.47" y2="24.71"/><line class="cls-2" x1="25.18" y1="60.48" x2="25.22" y2="53.24"/><path class="cls-2" d="M25,81.74l1.69,.02c.32,0,.6-.25,.6-.57l.1-10.85c.02-2.34-.85-1.64-.87-3.71,0-1.89,.92-1.74,.92-3.91v-.75c0-.8-.62-1.44-1.42-1.44h-1.69c-.8,0-1.44,.62-1.44,1.42v.75c-.02,2.17,.9,2.04,.87,3.93-.05,2.07-.92,1.37-.92,3.71l-.1,10.85c0,.32,.25,.6,.57,.6l1.69-.05h0Z"/></g><g><path class="cls-2" d="M36.53,25.38l2.89-.02c.2,0,.35,.15,.35,.35l.27,56.36c0,.2-.15,.35-.35,.35l-2.89,.02c-.2,0-.35-.15-.35-.35l-.27-56.36c0-.2,.15-.35,.35-.35Z"/><path class="cls-1" d="M29.36,29.26l16.85-.07c.2,0,.35,.15,.35,.35l.05,10.11c0,.2-.15,.35-.35,.35l-16.85,.07c-.2,0-.35-.15-.35-.35l-.05-10.11c0-.2,.15-.35,.35-.35Z"/></g><g><path class="cls-1" d="M55.64,60.81c.02-4.53,.9-3.01,.92-8.12l.05-23.77c-.02-.82-.22-1.24-.6-1.29h-3.39c-.37,.02-.57,.45-.6,1.29l-.05,23.77c0,5.1,.87,3.58,.87,8.12"/><path class="cls-2" d="M53.95,81.72l1.69,.02c.32,0,.6-.25,.6-.57l.2-10.85c.05-2.34-.85-1.64-.82-3.73,0-1.89,.92-1.74,.97-3.91v-.75c.02-.8-.62-1.44-1.39-1.47l-.85-.02-.85-.02c-.8-.02-1.44,.62-1.44,1.39l-.02,.75c-.02,2.17,.9,2.04,.82,3.93-.07,2.07-.92,1.37-.97,3.68l-.2,10.85c0,.32,.25,.6,.57,.6l1.69,.1h0Z"/></g><polygon class="cls-2" points="33.84 6.34 35.38 1.66 36.8 6.34 42.1 6.34 37.67 9.55 38.99 14.2 35.23 11.32 31.5 14.03 32.89 9.55 28.69 6.34 33.84 6.34"/><polygon class="cls-2" points="49.52 7.06 51.19 3.1 52.06 7.26 56.64 7.66 52.58 10.1 53.38 14.2 50.34 11.44 46.93 13.51 48.48 9.75 45.07 6.69 49.52 7.06"/><polygon class="cls-2" points="62.91 8.75 64.66 5.49 65.11 9.13 68.99 9.8 65.33 11.59 65.7 15.2 63.29 12.59 60.2 14.1 61.82 10.99 59.13 8.08 62.91 8.75"/><polygon class="cls-2" points="21.09 7.01 19.42 3.08 18.55 7.23 13.97 7.61 18.03 10.05 17.23 14.15 20.27 11.39 23.68 13.46 22.14 9.7 25.55 6.64 21.09 7.01"/><polygon class="cls-2" points="7.7 8.7 5.96 5.44 5.51 9.08 1.6 9.77 5.28 11.57 4.91 15.15 7.3 12.54 10.41 14.05 8.79 10.94 11.48 8.03 7.7 8.7"/></svg>