<?xml version="1.0" encoding="UTF-8"?><svg id="Calque_1" xmlns="http://www.w3.org/2000/svg" viewBox="0 0 80 80"><defs><style>.cls-1{fill:#fff;}</style></defs><circle cx="40" cy="40" r="40"/><path class="cls-1" d="M62.41,26.78c0-.23,0-.24-.25-.24-.59,0-1.17-.06-1.74-.15-2.09-.32-8.88-3.88-10.03-9.7-.02-.11-.28-1.56-.28-2.18,0-.28,0-.28-.28-.28-.06,0-.13,0-.19,0-2.66,0-5.31,0-7.97,0-.53,0-.46-.07-.46,.47,0,11.52,0,23.04,0,34.56,0,.43-.01,.86-.09,1.28-.4,2.23-1.54,3.97-3.48,5.17-1.67,1.03-3.49,1.33-5.42,.95-.61-.12-1.18-.35-1.75-.58-.05-.04-.09-.08-.14-.13-.19-.16-.4-.29-.61-.44-2.46-1.7-3.63-4.07-3.27-7.02,.36-3,2.09-5.04,4.93-6.08,.85-.31,1.74-.44,2.65-.39,.58,.03,1.17,.11,1.73,.27,.2,.06,.3-.01,.31-.22,0-.07,0-.15,0-.22,0-2.07-.08-6.59-.09-6.6,0-.6,0-1.19,.02-1.79,0-.17-.08-.2-.23-.22-1.07-.13-2.14-.15-3.22-.07-1.49,.11-2.93,.41-4.33,.92-2.24,.8-4.2,2.05-5.9,3.71-1.46,1.43-2.6,3.08-3.44,4.93-.8,1.78-1.26,3.65-1.39,5.59-.06,.84-.04,1.69,.03,2.54,.11,1.17,.33,2.31,.69,3.43,1.02,3.21,2.88,5.84,5.52,7.93,.27,.21,.53,.45,.85,.58,0,0,0,0,0,0,.13,.12,.27,.24,.4,.36,.43,.32,.88,.6,1.36,.83,2.95,1.46,6.06,2.05,9.34,1.65,4.25-.52,7.8-2.4,10.59-5.65,2.63-3.06,3.9-6.64,3.92-10.66,.03-5.74,0-11.47,.01-17.21,0-.14-.08-.33,.07-.4,.12-.05,.24,.1,.35,.18,2.14,1.4,4.44,2.42,6.93,2.99,1.45,.33,2.92,.53,4.41,.53,.47,0,.53-.02,.53-.49,0-2.04-.1-7.61-.1-8.15Z"/></svg>