<?xml version="1.0" encoding="UTF-8"?><svg id="Calque_1" xmlns="http://www.w3.org/2000/svg" viewBox="0 0 80 80"><defs><style>.cls-1{fill:#fff;}</style></defs><circle cx="40" cy="40" r="40"/><path class="cls-1" d="M31.92,63.04c19.54,0,30.22-16.19,30.22-30.22,0-.46,0-.92-.03-1.37,2.07-1.5,3.88-3.37,5.3-5.5-1.9,.85-3.95,1.42-6.1,1.67,2.19-1.31,3.88-3.4,4.67-5.88-2.05,1.22-4.32,2.1-6.74,2.58-1.94-2.06-4.7-3.36-7.75-3.36-5.87,0-10.62,4.76-10.62,10.62,0,.83,.09,1.64,.28,2.42-8.83-.44-16.65-4.67-21.89-11.1-.91,1.57-1.44,3.39-1.44,5.34,0,3.69,1.88,6.94,4.73,8.84-1.74-.05-3.38-.53-4.81-1.33,0,.04,0,.09,0,.14,0,5.14,3.66,9.44,8.52,10.41-.89,.24-1.83,.37-2.8,.37-.68,0-1.35-.07-2-.19,1.35,4.22,5.27,7.29,9.92,7.38-3.64,2.85-8.22,4.55-13.19,4.55-.86,0-1.7-.05-2.53-.15,4.7,3.01,10.28,4.77,16.28,4.77"/></svg>