<?xml version="1.0" encoding="UTF-8"?><svg id="Calque_1" xmlns="http://www.w3.org/2000/svg" viewBox="0 0 80 80"><defs><style>.cls-1{fill:#fff;}</style></defs><circle cx="40" cy="40" r="40"/><path class="cls-1" d="M65.55,27.16c-.61-2.29-2.42-4.1-4.72-4.72-4.16-1.11-20.84-1.11-20.84-1.11,0,0-16.68,0-20.84,1.11-2.29,.61-4.1,2.42-4.72,4.72-1.11,4.16-1.11,12.84-1.11,12.84,0,0,0,8.68,1.11,12.84,.61,2.29,2.42,4.1,4.72,4.72,4.16,1.11,20.84,1.11,20.84,1.11,0,0,16.68,0,20.84-1.11,2.29-.61,4.1-2.42,4.72-4.72,1.11-4.16,1.11-12.84,1.11-12.84,0,0,0-8.68-1.11-12.84Zm-30.89,20.84v-16l13.86,8-13.86,8Z"/></svg>