<svg xmlns="http://www.w3.org/2000/svg" xmlns:xlink="http://www.w3.org/1999/xlink" width="183.105" height="60.492" viewBox="0 0 183.105 60.492">
  <defs>
    <clipPath id="clip-path">
      <rect id="Rectangle_1" data-name="Rectangle 1" width="183.105" height="30.092" fill="#9b8450"/>
    </clipPath>
    <clipPath id="clip-path-2">
      <rect id="Rectangle_26" data-name="Rectangle 26" width="93.107" height="22.471" fill="#9b8450"/>
    </clipPath>
  </defs>
  <g id="Groupe_63" data-name="Groupe 63" transform="translate(-819.447 -51.882)">
    <g id="Groupe_38" data-name="Groupe 38" transform="translate(819.447 51.882)">
      <g id="Groupe_1" data-name="Groupe 1" clip-path="url(#clip-path)">
        <path id="Tracé_1" data-name="Tracé 1" d="M.021,3.423,0,2.393q3.324,0,4.87-.172c.4-.044.679-.065.836-.065.129,0,.321.008.578.021A12.055,12.055,0,0,1,7.958,3.893q.17.2.385.429l4.526,5,.644.772q1.373,1.608,2.5,2.746T20.4,17.579l5.125,5.683q.751.836,1.931,2.08L27.475,25q-.128-2.979-.127-3.152l.086-1.287-.044-2.016v-.923q0-.877-.15-5.426-.021-.622-.171-2.348T26.919,6.81a7.079,7.079,0,0,0-.28-2.746,3.933,3.933,0,0,0-1.824-.578q-.386-.022-1.2-.129a6.2,6.2,0,0,1-1.136-.107.784.784,0,0,1-.343-.365,1.966,1.966,0,0,1,.192-.644,4,4,0,0,1,1.138-.171,9.277,9.277,0,0,1,1.49.15,9.7,9.7,0,0,0,1.6.149q.987,0,3.067-.129c.787-.057,1.332-.086,1.63-.086h.365l-.043.666A2.763,2.763,0,0,1,30.629,3a4.949,4.949,0,0,0-1.115.183,2.436,2.436,0,0,0-.923.408,1.68,1.68,0,0,0-.515,1.136l.237,6.778.172,3.109-.021.9.127,4.31q.129,4.418.13,7.679,0,.707-.086,3.066l-1,.086q-.751-.859-5.171-5.405-1.03-1.048-1.394-1.479l-1.846-2.125c-.715-.785-1.18-1.287-1.395-1.5s-.372-.372-.471-.474q-2.338-2.657-6.073-6.648-1.008-1.073-2.96-3.346Q7.1,8.249,6.778,7.926A7.8,7.8,0,0,0,5.9,7.2l-.065.728q0,4.185.215,11.541l.149,7.1c.014.6.051,1.179.108,1.738l.75.172q2.037.19,4.012.578a2.186,2.186,0,0,0,.257.194l-.021.814a1.992,1.992,0,0,1-.559.108,4.733,4.733,0,0,1-.578-.043Q8.043,29.955,5,29.955q-2.145,0-3.775.106l-.3.022a5.237,5.237,0,0,1-.559-.043L.343,29.4.9,29.139l1.007-.149a10.157,10.157,0,0,0,1.973-.429,1.569,1.569,0,0,0,.666-.451,29.562,29.562,0,0,0,.237-4.332q0-1.33-.065-4.87V15.99L4.676,9.9a26.453,26.453,0,0,0-.279-4.8,1.426,1.426,0,0,0-.536-.687A4.542,4.542,0,0,0,1.727,3.68,14.2,14.2,0,0,1,.021,3.423" transform="translate(0 -0.849)" fill="#9b8450"/>
        <path id="Tracé_2" data-name="Tracé 2" d="M55.993,28.118a1.109,1.109,0,0,1,.535-.171h.493c.1,0,.271-.006.515-.022a8.408,8.408,0,0,0,1.951-.3,3.3,3.3,0,0,0,1.287-1.417,51.594,51.594,0,0,0,2.51-6.2q.665-1.909.836-2.317.535-1.287,1.031-2.7l2.016-5.64q.472-1.33,2.273-6.092.45-1.2,1.095-3.219L71.166,0l.75.021a29.466,29.466,0,0,1,1.629,3.926q.387,1.116,1.265,3.324l3.255,8.814L79.8,20.869q1.373,4.075,1.8,5.008a3.617,3.617,0,0,0,.794,1.234,3.208,3.208,0,0,0,.8.258c.466.114.789.2.975.257a9.021,9.021,0,0,1,1.372.47,1.18,1.18,0,0,1,.086.365,1.216,1.216,0,0,1-.064.321c-.457.016-.78.022-.966.022q-1.091,0-3.861-.064L78.6,28.692,76,28.724c-.172,0-.346-.008-.526-.024s-.332-.024-.461-.024h-.471a1.071,1.071,0,0,1-.429-.129,1.6,1.6,0,0,1,.106-.578,1.377,1.377,0,0,1,.474-.15l2.251-.151a4.044,4.044,0,0,0,1.328-.235,2.06,2.06,0,0,0,.129-.581,9.351,9.351,0,0,0-.558-2c-.255-.715-.481-1.4-.674-2.04s-.953-2.764-2.281-6.361a9.29,9.29,0,0,0-1.545-.149l-4.59.041-1.352-.021a13.621,13.621,0,0,0-1.608.106q-.279.643-.365.923l-1.889,5.9a29.474,29.474,0,0,0-1.2,3.71,1.942,1.942,0,0,0,.192.643,9.212,9.212,0,0,0,1.2.235l2.917.257c.157.13.237.244.237.343a1.241,1.241,0,0,1-.065.323q-.965.021-1.479.021-1.719,0-3.991-.106-1.051-.043-1.5-.043c-.3,0-.823.014-1.567.043-.486.028-.836.042-1.052.042-.343,0-.787-.022-1.328-.063v-.13a1.389,1.389,0,0,1,.086-.407M66.226,15.249q2.3.128,5.234.129,1.673,0,2.939-.106a14.649,14.649,0,0,0-.493-1.567q-1.394-3.73-1.542-4.117l-1.95-4.952L70.2,4.25q-.128.258-.945,2.209Q67.88,9.8,67.28,11.668c-.188.558-.379,1.112-.58,1.662a11.376,11.376,0,0,0-.376,1.158,3.767,3.767,0,0,1-.225.676Z" transform="translate(-22.919 0)" fill="#9b8450"/>
        <path id="Tracé_3" data-name="Tracé 3" d="M134.047,3.228l.237,3.26q.129,1.48.127,2.016l-.6.108a12.164,12.164,0,0,0-3.57-4.89,8.353,8.353,0,0,0-5.222-1.63,15.032,15.032,0,0,0-5.879.921,12.006,12.006,0,0,0-5.211,4.548,13.716,13.716,0,0,0-2.167,7.808,13.342,13.342,0,0,0,.795,4.74,14.334,14.334,0,0,0,2.242,3.913,15.21,15.21,0,0,0,3.421,3.143,9.525,9.525,0,0,0,3.067,1.33,14.184,14.184,0,0,0,3,.235,12.676,12.676,0,0,0,2.854-.364,6.227,6.227,0,0,0,2.36-.975,3.179,3.179,0,0,0,1.083-1.384,10.127,10.127,0,0,0,.289-3q0-3.71-.494-4.322t-3.11-.8l-.858-.065-.58.021c-.086-.013-.2-.035-.343-.064l-.321-.537a.486.486,0,0,1,.149-.279,41.557,41.557,0,0,1,4.849-.171q.834,0,2.723.042l2.209.086,2-.022c.386,0,.85.016,1.395.044a.307.307,0,0,1,.192.075.3.3,0,0,1,.042.183,2.212,2.212,0,0,1-.108.6,7.279,7.279,0,0,1-1.393.192l-1.394-.021a1.43,1.43,0,0,0-1.137.493,3.266,3.266,0,0,0-.215,1.608l.021,2.81a17.129,17.129,0,0,1-.235,3.69,1.783,1.783,0,0,1-.538.847,6.121,6.121,0,0,1-1.716.89,16.528,16.528,0,0,1-3.387,1.009,31.892,31.892,0,0,1-5.47.494,19.016,19.016,0,0,1-6.961-1.083,14,14,0,0,1-4.676-3.014,12.331,12.331,0,0,1-2.8-3.9,14.577,14.577,0,0,1-1.266-5.9,15.019,15.019,0,0,1,1.984-7.347,14.553,14.553,0,0,1,6.4-5.845,18.759,18.759,0,0,1,8.449-1.587,23.439,23.439,0,0,1,6.039.643,15.385,15.385,0,0,1,3.721,1.459" transform="translate(-44.049 -0.461)" fill="#9b8450"/>
        <path id="Tracé_4" data-name="Tracé 4" d="M216.029,1.968h1.03q.558,0,2.445.057,2.917.114,4.847.114l2.51-.043a6.021,6.021,0,0,1,1.03.086.552.552,0,0,1,.149.363v.237l-.538.258h-.238l-1.208.021-.626-.021a1.988,1.988,0,0,0-1.185.322.637.637,0,0,0-.345.493,1.343,1.343,0,0,0,.3.709c.07.114.186.286.343.515a20.051,20.051,0,0,0,1.138,1.7q1.008,1.418,2.145,3.349.451.773.945,1.481l3.262,4.938q.321-.408.882-1.2l3.095-4.444,3.569-5.346a4.229,4.229,0,0,0,.558-1.071,1.485,1.485,0,0,0,.043-.365.85.85,0,0,0-.408-.729,7.176,7.176,0,0,0-2.872-.666c-.1-.013-.237-.035-.408-.064a.908.908,0,0,1-.151-.429,1.956,1.956,0,0,1,.022-.28l1.115-.021,4.032.107,3.238-.064c.086,0,.388.008.9.022l-.066.75a2.365,2.365,0,0,1-.471.063l-.515.065c-.086.014-.222.028-.407.042a2.85,2.85,0,0,0-.709.366,70.789,70.789,0,0,0-5.362,6.283q-2.209,2.96-3.732,5.385-.493.793-.794,1.179a4.239,4.239,0,0,0-.664,1.072,10.107,10.107,0,0,0-.235,2.536,68.748,68.748,0,0,0,.235,7.885q.129.6.343.731a22.647,22.647,0,0,0,4.439.667v.249a1.616,1.616,0,0,1-.149.609l-5.5-.237-3.673.192h-3.008c-.286,0-.6-.006-.946-.021a1.171,1.171,0,0,1-.086-.343,1.048,1.048,0,0,1,.065-.3.591.591,0,0,1,.3-.149l2.777-.429a6.685,6.685,0,0,0,1.616-.646,1.31,1.31,0,0,0,.325-.792q.019-.386.021-5.963a12.8,12.8,0,0,0-.14-2.542,7.768,7.768,0,0,0-.91-1.619l-2.811-4.269-4.784-6.97a9.371,9.371,0,0,0-2.165-2.427,5.409,5.409,0,0,0-2.039-.426,4.615,4.615,0,0,1-.515-.042Z" transform="translate(-88.561 -0.789)" fill="#9b8450"/>
        <path id="Tracé_5" data-name="Tracé 5" d="M260.026,28.118a1.109,1.109,0,0,1,.535-.171h.493c.1,0,.271-.006.515-.022a8.407,8.407,0,0,0,1.951-.3,3.3,3.3,0,0,0,1.287-1.417,51.581,51.581,0,0,0,2.51-6.2q.665-1.909.836-2.317.535-1.287,1.031-2.7l2.016-5.64q.472-1.33,2.273-6.092.45-1.2,1.095-3.219L275.2,0l.75.021a29.473,29.473,0,0,1,1.629,3.926q.387,1.116,1.265,3.324l3.255,8.814,1.735,4.784q1.373,4.075,1.8,5.008a3.617,3.617,0,0,0,.794,1.234,3.207,3.207,0,0,0,.8.258c.466.114.789.2.975.257a9.02,9.02,0,0,1,1.372.47,1.18,1.18,0,0,1,.086.365,1.215,1.215,0,0,1-.064.321c-.457.016-.78.022-.966.022q-1.091,0-3.861-.064l-2.145-.049-2.594.031c-.172,0-.346-.008-.526-.024s-.332-.024-.461-.024h-.471a1.072,1.072,0,0,1-.429-.129,1.6,1.6,0,0,1,.106-.578,1.377,1.377,0,0,1,.474-.15l2.251-.151a4.045,4.045,0,0,0,1.328-.235,2.061,2.061,0,0,0,.129-.581,9.352,9.352,0,0,0-.558-2c-.255-.715-.481-1.4-.674-2.04s-.953-2.764-2.281-6.361a9.29,9.29,0,0,0-1.545-.149l-4.59.041-1.352-.021a13.621,13.621,0,0,0-1.608.106q-.279.643-.365.923l-1.889,5.9a29.473,29.473,0,0,0-1.2,3.71,1.941,1.941,0,0,0,.192.643,9.213,9.213,0,0,0,1.2.235l2.917.257c.157.13.237.244.237.343a1.242,1.242,0,0,1-.065.323q-.965.021-1.479.021-1.719,0-3.991-.106-1.051-.043-1.5-.043c-.3,0-.823.014-1.567.043-.486.028-.836.042-1.052.042-.343,0-.787-.022-1.328-.063v-.13a1.389,1.389,0,0,1,.086-.407m10.233-12.869q2.295.128,5.234.129,1.673,0,2.939-.106a14.639,14.639,0,0,0-.493-1.567q-1.394-3.73-1.542-4.117l-1.949-4.952-.215-.386q-.128.258-.945,2.209-1.375,3.346-1.975,5.21c-.188.558-.379,1.112-.58,1.662a11.359,11.359,0,0,0-.376,1.158,3.77,3.77,0,0,1-.225.676Z" transform="translate(-106.562 0)" fill="#9b8450"/>
        <path id="Tracé_6" data-name="Tracé 6" d="M194.976,22.945l-.022-.005a4.915,4.915,0,0,1-1.782-.827,2.378,2.378,0,0,1-.7-.758,9.57,9.57,0,0,0,1.316-2.846,16.049,16.049,0,0,0,.516-4.433,13.725,13.725,0,0,0-.769-4.555,10.716,10.716,0,0,0-1.741-3.137,13.023,13.023,0,0,0-3.318-3.117,14.576,14.576,0,0,0-3.694-1.578,15.366,15.366,0,0,0-3.736-.552,22.242,22.242,0,0,0-3.38.163,12.828,12.828,0,0,0-2.265.49A15.824,15.824,0,0,0,170.8,4.027a11.671,11.671,0,0,0-2.833,3.147,15.168,15.168,0,0,0-1.67,3.493,12.454,12.454,0,0,0-.5,3.674,13.508,13.508,0,0,0,.769,4.634,12.648,12.648,0,0,0,2.257,3.887,13.335,13.335,0,0,0,2.894,2.661,7.579,7.579,0,0,0,1.438.767,4.977,4.977,0,0,1-1.534,3.117,8.532,8.532,0,0,0,.912-.888,6.409,6.409,0,0,0,.753-1.037,5.18,5.18,0,0,0,.749-2.472.15.15,0,0,0-.063-.126l-.01-.007A12.967,12.967,0,0,1,169.69,9.2a12.578,12.578,0,0,1,1.829-2.9,12.519,12.519,0,0,1,2.574-2.231,12.038,12.038,0,0,1,3.125-1.315,10.865,10.865,0,0,1,6.661.507,12.447,12.447,0,0,1,2.92,1.725,12.974,12.974,0,0,1,2.324,2.479,13.781,13.781,0,0,1,1.584,3.015c.159.547.364,1.083.474,1.644a12.607,12.607,0,0,1-1.026,8.323l-.011.022a.635.635,0,0,0,.01.584,5.073,5.073,0,0,0,.879,1.168,6.4,6.4,0,0,0,1.1.884,8.578,8.578,0,0,0,1.169.624l-.758.414a19.249,19.249,0,0,1-2.026.931,8.805,8.805,0,0,1-2.081.558,1.976,1.976,0,0,1-1.709-.424l0-.005a.478.478,0,0,0-.825.212c-.086.389-.2.8-.333,1.2s-.277.792-.44,1.177a6.8,6.8,0,0,1-1.1,1.9,9.839,9.839,0,0,1-1.946-1.11,13.953,13.953,0,0,1-1.874-1.637l-.017-.018a.269.269,0,0,0-.459.14,2.193,2.193,0,0,1-1.383,1.421,9.072,9.072,0,0,1-2.157.618,22.176,22.176,0,0,1-2.269.254c-.762.048-1.528.067-2.294.047a22.137,22.137,0,0,0,4.607,0,9.428,9.428,0,0,0,2.281-.525,5.322,5.322,0,0,0,1.057-.551,2.1,2.1,0,0,0,.574-.628,12.649,12.649,0,0,0,1.549,1.453,8.531,8.531,0,0,0,2.327,1.375.378.378,0,0,0,.411-.1l.009-.009a8.911,8.911,0,0,0,1.478-2.278q.283-.609.51-1.237s.117-.338.2-.576a2.349,2.349,0,0,0,.6.233,4.124,4.124,0,0,0,1.306.091,9.824,9.824,0,0,0,2.367-.546,20.336,20.336,0,0,0,2.178-.915,22.824,22.824,0,0,0,2.071-1.129.615.615,0,0,0-.169-1.12" transform="translate(-67.97 -0.461)" fill="#9b8450"/>
      </g>
    </g>
    <g id="Groupe_40" data-name="Groupe 40" transform="translate(864.446 89.902)">
      <g id="Groupe_22" data-name="Groupe 22" transform="translate(0 0)" clip-path="url(#clip-path-2)">
        <path id="Tracé_243" data-name="Tracé 243" d="M11.092,3.108c-2.078.234-2.26.312-2.65,2.364l-2,10.39c-.675,3.586-1.715,5.456-3.9,6.546a6.962,6.962,0,0,1-2.337.65L0,22.254c2.7-.727,3.533-2.312,4.416-6.884l1.9-9.9c.39-2.079.234-2.13-2.077-2.364l.181-.727h6.858Z" transform="translate(0 -0.588)" fill="#9b8450"/>
        <path id="Tracé_244" data-name="Tracé 244" d="M24.045,13.3a8.341,8.341,0,0,1-3.637,6.936,6.226,6.226,0,0,1-3.2,1.039c-2.468,0-3.481-1.974-3.481-4.053a7.9,7.9,0,0,1,4.183-7.273,6.61,6.61,0,0,1,2.676-.7c2.181,0,3.455,1.429,3.455,4.053m-8.105,3.637c0,1.948.727,3.247,2.156,3.247,2.468,0,3.767-3.974,3.767-6.78,0-2.156-.935-3.065-2.182-3.065-2.6,0-3.741,3.923-3.741,6.6" transform="translate(-3.392 -2.284)" fill="#9b8450"/>
        <path id="Tracé_245" data-name="Tracé 245" d="M41.29,18.624c-1.273,1.715-2.884,2.65-3.611,2.65s-1.039-.6-.572-2.961l.364-1.793a14.455,14.455,0,0,1-3.118,3.507,4.756,4.756,0,0,1-2.676,1.247c-.909,0-1.663-1.117-1.663-3.221A9.581,9.581,0,0,1,32.9,11.3a7.628,7.628,0,0,1,4.961-2.053,17.3,17.3,0,0,1,3.013.442c-.468,1.636-1.377,5.637-1.87,8.573-.13.727-.078,1.013.13,1.013.312,0,.857-.337,1.792-1.3Zm-4.7-2.157a9.157,9.157,0,0,0,1.507-3.117,22.874,22.874,0,0,0,.572-2.546,5.231,5.231,0,0,0-1.974-.416c-3.066,0-4.495,3.949-4.495,7.326,0,1.039.286,1.715.8,1.715.806,0,1.949-.8,3.585-2.961" transform="translate(-7.414 -2.284)" fill="#9b8450"/>
        <path id="Tracé_246" data-name="Tracé 246" d="M52.46,16.946a5.9,5.9,0,0,1-3.714,2.572c-.676,0-.962-.675-.468-2.754.416-1.714,1.143-4.494,1.637-6.6.1-.494.078-.728-.078-.728a4.492,4.492,0,0,0-1.715,1.169l-.337-.675C49,8.607,50.771,7.49,51.6,7.49c.649,0,.675.883.208,2.806-.494,1.87-1.118,4.494-1.585,6.339-.182.7-.182.987,0,.987A3.839,3.839,0,0,0,52.1,16.3Zm.727-13.612a1.434,1.434,0,0,1-1.376,1.507,1.112,1.112,0,0,1-1.144-1.169,1.514,1.514,0,0,1,1.455-1.533,1.073,1.073,0,0,1,1.065,1.195" transform="translate(-11.804 -0.528)" fill="#9b8450"/>
        <path id="Tracé_247" data-name="Tracé 247" d="M61.686,16.314c-1.3,1.741-3.013,2.676-3.766,2.676-.65,0-1.04-.52-.52-3.013.935-4.443,1.949-9.144,2.779-13.145.208-1.04.13-1.143-.8-1.221-.286-.026-.754-.078-.962-.078l.156-.675a16.911,16.911,0,0,0,3.169-.65A2.065,2.065,0,0,1,62.517,0c.234,0,.234.234.1.831-1.169,4.988-2.442,10.911-3.3,15.249-.156.728-.13.962.078.962a3.971,3.971,0,0,0,1.9-1.376Z" transform="translate(-14.119 0)" fill="#9b8450"/>
        <path id="Tracé_248" data-name="Tracé 248" d="M70.45,16.314c-1.3,1.741-3.013,2.676-3.766,2.676-.65,0-1.04-.52-.52-3.013.935-4.443,1.949-9.144,2.779-13.145.208-1.04.13-1.143-.8-1.221-.286-.026-.754-.078-.962-.078l.156-.675A16.912,16.912,0,0,0,70.5.208,2.065,2.065,0,0,1,71.281,0c.234,0,.234.234.1.831-1.169,4.988-2.442,10.911-3.3,15.249-.156.728-.13.962.078.962a3.971,3.971,0,0,0,1.9-1.376Z" transform="translate(-16.284 0)" fill="#9b8450"/>
        <path id="Tracé_249" data-name="Tracé 249" d="M77.561,21.274c-1.246,0-2.935-.727-2.935-3.871A8.723,8.723,0,0,1,77.717,10.6a6.335,6.335,0,0,1,3.508-1.351,2.088,2.088,0,0,1,2.312,2.078c0,2.6-3.818,3.819-6.729,4.339-.026.312-.052.831-.052,1.091,0,1.507.416,2.961,2.026,2.961a5.783,5.783,0,0,0,3.845-2.053l.389.65c-2.1,2.442-4.156,2.961-5.455,2.961m-.649-6.469c3.767-.675,4.65-1.87,4.676-3.065a1.25,1.25,0,0,0-1.351-1.376c-.779,0-2.571.572-3.325,4.442" transform="translate(-18.434 -2.284)" fill="#9b8450"/>
        <path id="Tracé_250" data-name="Tracé 250" d="M88.634,11.715c1.3-1.532,2.676-2.468,3.429-2.468.883,0,.8,1.376.312,3.611l-.156.7c1.4-2.39,3.195-4.312,4.234-4.312a1.2,1.2,0,0,1,1.2,1.169,2.465,2.465,0,0,1-1.013,1.663c-.234.156-.442.156-.572,0-.286-.312-.545-.753-.857-.753-.6,0-1.871,1.844-2.468,2.91a24.962,24.962,0,0,0-1.9,6.52,14.545,14.545,0,0,0-1.9.52l-.182-.181c.623-2.39,1.533-6.339,1.9-8.235.286-1.455.209-1.688.027-1.688A3.9,3.9,0,0,0,89,12.364Z" transform="translate(-21.894 -2.284)" fill="#9b8450"/>
        <path id="Tracé_251" data-name="Tracé 251" d="M107.18,16.946a5.9,5.9,0,0,1-3.714,2.572c-.676,0-.962-.675-.468-2.754.416-1.714,1.143-4.494,1.637-6.6.1-.494.078-.728-.078-.728a4.5,4.5,0,0,0-1.715,1.169l-.337-.675c1.221-1.325,2.987-2.442,3.819-2.442.649,0,.675.883.208,2.806-.494,1.87-1.118,4.494-1.585,6.339-.182.7-.182.987,0,.987a3.839,3.839,0,0,0,1.87-1.324Zm.727-13.612a1.434,1.434,0,0,1-1.376,1.507,1.112,1.112,0,0,1-1.144-1.169,1.515,1.515,0,0,1,1.456-1.533,1.073,1.073,0,0,1,1.065,1.195" transform="translate(-25.321 -0.528)" fill="#9b8450"/>
        <path id="Tracé_252" data-name="Tracé 252" d="M114.753,21.274c-1.246,0-2.935-.727-2.935-3.871a8.723,8.723,0,0,1,3.091-6.806,6.335,6.335,0,0,1,3.508-1.351,2.088,2.088,0,0,1,2.312,2.078c0,2.6-3.818,3.819-6.729,4.339-.026.312-.052.831-.052,1.091,0,1.507.416,2.961,2.026,2.961a5.783,5.783,0,0,0,3.845-2.053l.389.65c-2.1,2.442-4.156,2.961-5.455,2.961m-.649-6.469c3.767-.675,4.65-1.87,4.676-3.065a1.25,1.25,0,0,0-1.351-1.376c-.779,0-2.571.572-3.325,4.442" transform="translate(-27.621 -2.284)" fill="#9b8450"/>
      </g>
    </g>
  </g>
</svg>
