<svg xmlns="http://www.w3.org/2000/svg" xmlns:xlink="http://www.w3.org/1999/xlink" width="166" height="52.987" viewBox="0 0 166 52.987">
  <defs>
    <clipPath id="clip-path">
      <rect id="Rectangle_1" data-name="Rectangle 1" width="166" height="27.281" fill="none"/>
    </clipPath>
    <clipPath id="clip-path-2">
      <rect id="Rectangle_26" data-name="Rectangle 26" width="73.93" height="17.843" fill="none"/>
    </clipPath>
  </defs>
  <g id="Groupe_63" data-name="Groupe 63" transform="translate(-877 -2931.719)">
    <g id="Groupe_21" data-name="Groupe 21" transform="translate(877 2931.719)">
      <g id="Groupe_2" data-name="Groupe 2" transform="translate(0 0)">
        <g id="Groupe_1" data-name="Groupe 1" transform="translate(0 0)" clip-path="url(#clip-path)">
          <path id="Tracé_1" data-name="Tracé 1" d="M.019,3.3,0,2.363q3.014,0,4.415-.156c.362-.04.615-.059.757-.059.117,0,.291.007.524.019A10.929,10.929,0,0,1,7.215,3.723q.154.177.349.389l4.1,4.531.584.7Q13.5,10.8,14.516,11.832t3.977,4.3l4.646,5.152q.681.758,1.75,1.886l.019-.311q-.116-2.7-.115-2.858l.078-1.167L24.831,17v-.837q0-.8-.136-4.919-.019-.564-.155-2.129T24.4,6.368a6.417,6.417,0,0,0-.254-2.489A3.566,3.566,0,0,0,22.5,3.354q-.35-.02-1.089-.117a5.623,5.623,0,0,1-1.03-.1.71.71,0,0,1-.311-.331,1.783,1.783,0,0,1,.174-.584,3.626,3.626,0,0,1,1.031-.155,8.41,8.41,0,0,1,1.351.136,8.791,8.791,0,0,0,1.449.135q.895,0,2.78-.117c.713-.052,1.207-.078,1.478-.078h.331l-.039.6a2.5,2.5,0,0,1-.855.164,4.487,4.487,0,0,0-1.011.166,2.209,2.209,0,0,0-.837.37,1.523,1.523,0,0,0-.466,1.03l.215,6.145.156,2.819-.019.818.115,3.908q.117,4.006.118,6.962,0,.641-.078,2.78l-.908.078q-.68-.778-4.688-4.9-.934-.95-1.264-1.341l-1.674-1.926c-.648-.711-1.07-1.167-1.265-1.359s-.337-.337-.427-.43q-2.12-2.409-5.506-6.027-.914-.973-2.683-3.034-1.111-1.3-1.4-1.6a7.067,7.067,0,0,0-.8-.66l-.059.66q0,3.794.195,10.463l.135,6.436c.013.545.046,1.069.1,1.576l.68.156q1.847.173,3.637.524a1.982,1.982,0,0,0,.233.175l-.019.738a1.806,1.806,0,0,1-.507.1,4.291,4.291,0,0,1-.524-.039Q7.292,27.35,4.53,27.35q-1.944,0-3.422.1l-.271.02a4.749,4.749,0,0,1-.507-.039l-.019-.584.506-.233.913-.135a9.208,9.208,0,0,0,1.789-.389,1.422,1.422,0,0,0,.6-.409,26.8,26.8,0,0,0,.215-3.927q0-1.206-.059-4.415V14.69L4.239,9.167a23.982,23.982,0,0,0-.253-4.355A1.293,1.293,0,0,0,3.5,4.189a4.117,4.117,0,0,0-1.934-.66A12.875,12.875,0,0,1,.019,3.3" transform="translate(0 -0.963)" fill="#161615"/>
          <path id="Tracé_2" data-name="Tracé 2" d="M55.985,25.492a1,1,0,0,1,.485-.155h.447c.09,0,.246-.006.466-.02a7.623,7.623,0,0,0,1.769-.271,2.993,2.993,0,0,0,1.167-1.285,46.774,46.774,0,0,0,2.276-5.619q.6-1.731.758-2.1.485-1.167.935-2.45l1.828-5.113q.428-1.206,2.061-5.523.408-1.089.992-2.918L69.74,0l.68.019A26.713,26.713,0,0,1,71.9,3.578q.351,1.012,1.147,3.014l2.951,7.991,1.573,4.337q1.245,3.694,1.634,4.54a3.279,3.279,0,0,0,.72,1.119,2.908,2.908,0,0,0,.729.234c.422.1.716.181.884.233a8.178,8.178,0,0,1,1.244.426,1.07,1.07,0,0,1,.078.331,1.1,1.1,0,0,1-.058.291c-.415.014-.707.02-.876.02q-.989,0-3.5-.058l-1.944-.044-2.352.028c-.156,0-.314-.007-.477-.021s-.3-.021-.418-.021H72.8a.971.971,0,0,1-.389-.117,1.448,1.448,0,0,1,.1-.524,1.248,1.248,0,0,1,.43-.136l2.041-.137a3.667,3.667,0,0,0,1.2-.213,1.868,1.868,0,0,0,.117-.527A8.478,8.478,0,0,0,75.8,22.53c-.232-.648-.436-1.266-.611-1.849s-.864-2.506-2.068-5.767a8.422,8.422,0,0,0-1.4-.135l-4.161.037L66.331,14.8a12.348,12.348,0,0,0-1.458.1q-.253.583-.331.837L62.83,21.079a26.721,26.721,0,0,0-1.089,3.364,1.76,1.76,0,0,0,.174.583A8.353,8.353,0,0,0,63,25.239l2.645.233c.142.118.215.221.215.311a1.125,1.125,0,0,1-.059.293q-.875.019-1.341.019-1.558,0-3.618-.1-.953-.039-1.36-.039c-.274,0-.746.013-1.42.039-.441.026-.758.039-.954.039-.311,0-.713-.02-1.2-.057v-.118a1.26,1.26,0,0,1,.078-.369m9.277-11.667q2.081.116,4.745.117,1.517,0,2.665-.1a13.281,13.281,0,0,0-.447-1.42q-1.264-3.381-1.4-3.732L69.059,4.2l-.195-.35q-.116.233-.857,2-1.246,3.033-1.79,4.723c-.17.506-.344,1.008-.526,1.506a10.314,10.314,0,0,0-.341,1.05,3.415,3.415,0,0,1-.2.612Z" transform="translate(-26.001 0)" fill="#161615"/>
          <path id="Tracé_3" data-name="Tracé 3" d="M131.562,3.031l.215,2.956q.117,1.342.116,1.828l-.545.1a11.028,11.028,0,0,0-3.237-4.434A7.572,7.572,0,0,0,123.377,2a13.628,13.628,0,0,0-5.33.835,10.884,10.884,0,0,0-4.725,4.123,12.435,12.435,0,0,0-1.965,7.078,12.1,12.1,0,0,0,.721,4.3,13,13,0,0,0,2.032,3.548,13.789,13.789,0,0,0,3.1,2.849,8.636,8.636,0,0,0,2.78,1.206,12.859,12.859,0,0,0,2.722.213,11.492,11.492,0,0,0,2.587-.33,5.645,5.645,0,0,0,2.139-.884,2.882,2.882,0,0,0,.982-1.254,9.181,9.181,0,0,0,.262-2.723q0-3.364-.448-3.918t-2.819-.729l-.778-.059-.526.019c-.078-.012-.181-.032-.311-.058l-.291-.487a.441.441,0,0,1,.135-.252,37.675,37.675,0,0,1,4.4-.155q.756,0,2.469.039l2,.078,1.809-.02c.35,0,.77.014,1.265.04a.279.279,0,0,1,.174.068.271.271,0,0,1,.039.166,2.005,2.005,0,0,1-.1.545,6.6,6.6,0,0,1-1.263.174l-1.264-.019a1.3,1.3,0,0,0-1.031.447,2.961,2.961,0,0,0-.195,1.458l.019,2.548a15.529,15.529,0,0,1-.213,3.345,1.617,1.617,0,0,1-.487.768,5.549,5.549,0,0,1-1.556.807,14.984,14.984,0,0,1-3.071.915,28.913,28.913,0,0,1-4.959.448,17.24,17.24,0,0,1-6.311-.982,12.7,12.7,0,0,1-4.239-2.732,11.179,11.179,0,0,1-2.537-3.539,13.215,13.215,0,0,1-1.148-5.347,13.616,13.616,0,0,1,1.8-6.66,13.194,13.194,0,0,1,5.805-5.3,17.007,17.007,0,0,1,7.66-1.439,21.249,21.249,0,0,1,5.475.583,13.947,13.947,0,0,1,3.373,1.322" transform="translate(-49.972 -0.524)" fill="#161615"/>
          <path id="Tracé_4" data-name="Tracé 4" d="M216.029,1.964h.933q.506,0,2.217.052,2.645.1,4.394.1l2.276-.039a5.459,5.459,0,0,1,.933.078.5.5,0,0,1,.135.33V2.7l-.488.234h-.216l-1.1.019-.568-.019a1.8,1.8,0,0,0-1.074.292.577.577,0,0,0-.313.447,1.218,1.218,0,0,0,.274.642c.063.1.169.259.311.466a18.176,18.176,0,0,0,1.031,1.537q.914,1.285,1.944,3.036.408.7.857,1.343l2.957,4.477q.291-.37.8-1.091l2.806-4.029,3.235-4.847a3.834,3.834,0,0,0,.505-.971,1.347,1.347,0,0,0,.039-.331.77.77,0,0,0-.37-.661,6.505,6.505,0,0,0-2.6-.6c-.093-.012-.215-.032-.37-.058a.823.823,0,0,1-.137-.389,1.772,1.772,0,0,1,.02-.254l1.011-.019,3.656.1,2.935-.058c.078,0,.351.007.818.02l-.059.68a2.145,2.145,0,0,1-.427.057l-.467.059c-.078.013-.2.026-.369.039a2.584,2.584,0,0,0-.642.332,64.178,64.178,0,0,0-4.861,5.7q-2,2.683-3.383,4.882-.447.719-.72,1.069a3.842,3.842,0,0,0-.6.972,9.164,9.164,0,0,0-.213,2.3,62.331,62.331,0,0,0,.213,7.148q.117.546.311.663a20.531,20.531,0,0,0,4.024.605v.226a1.465,1.465,0,0,1-.135.552l-4.987-.215-3.33.174h-2.727c-.259,0-.546-.005-.858-.019a1.062,1.062,0,0,1-.078-.311.95.95,0,0,1,.059-.272.536.536,0,0,1,.274-.135l2.518-.389a6.062,6.062,0,0,0,1.465-.585,1.187,1.187,0,0,0,.294-.718q.017-.35.019-5.406a11.607,11.607,0,0,0-.127-2.3,7.042,7.042,0,0,0-.825-1.468l-2.548-3.87-4.337-6.319a8.5,8.5,0,0,0-1.963-2.2,4.9,4.9,0,0,0-1.848-.386,4.183,4.183,0,0,1-.466-.039Z" transform="translate(-100.468 -0.895)" fill="#161615"/>
          <path id="Tracé_5" data-name="Tracé 5" d="M260.018,25.492a1,1,0,0,1,.485-.155h.447c.09,0,.246-.006.466-.02a7.622,7.622,0,0,0,1.769-.271,2.993,2.993,0,0,0,1.167-1.285,46.766,46.766,0,0,0,2.276-5.619q.6-1.731.758-2.1.485-1.167.935-2.45l1.828-5.113q.428-1.206,2.061-5.523.408-1.089.992-2.918L273.773,0l.68.019a26.727,26.727,0,0,1,1.476,3.559q.351,1.012,1.147,3.014l2.951,7.991L281.6,18.92q1.245,3.694,1.634,4.54a3.28,3.28,0,0,0,.72,1.119,2.907,2.907,0,0,0,.729.234c.422.1.716.181.884.233a8.178,8.178,0,0,1,1.244.426,1.07,1.07,0,0,1,.078.331,1.1,1.1,0,0,1-.058.291c-.415.014-.707.02-.876.02q-.989,0-3.5-.058l-1.944-.044-2.352.028c-.156,0-.314-.007-.477-.021s-.3-.021-.418-.021h-.427a.971.971,0,0,1-.389-.117,1.448,1.448,0,0,1,.1-.524,1.249,1.249,0,0,1,.43-.136l2.041-.137a3.667,3.667,0,0,0,1.2-.213,1.868,1.868,0,0,0,.117-.527,8.478,8.478,0,0,0-.506-1.812c-.232-.648-.436-1.266-.611-1.849s-.864-2.506-2.068-5.767a8.422,8.422,0,0,0-1.4-.135l-4.161.037-1.226-.019a12.348,12.348,0,0,0-1.458.1q-.253.583-.331.837l-1.713,5.348a26.719,26.719,0,0,0-1.089,3.364,1.76,1.76,0,0,0,.174.583,8.353,8.353,0,0,0,1.089.213l2.645.233c.142.118.215.221.215.311a1.126,1.126,0,0,1-.059.293q-.875.019-1.341.019-1.558,0-3.618-.1-.953-.039-1.36-.039c-.274,0-.746.013-1.42.039-.441.026-.758.039-.954.039-.311,0-.713-.02-1.2-.057v-.118a1.259,1.259,0,0,1,.078-.369M269.3,13.825q2.081.116,4.745.117,1.517,0,2.664-.1a13.276,13.276,0,0,0-.447-1.42q-1.264-3.381-1.4-3.732L273.092,4.2l-.195-.35q-.116.233-.857,2-1.246,3.033-1.79,4.723c-.17.506-.344,1.008-.526,1.506a10.292,10.292,0,0,0-.341,1.05,3.421,3.421,0,0,1-.2.612Z" transform="translate(-120.89 0)" fill="#161615"/>
          <path id="Tracé_6" data-name="Tracé 6" d="M192.251,20.907l-.02,0a4.456,4.456,0,0,1-1.615-.75,2.156,2.156,0,0,1-.639-.687,8.677,8.677,0,0,0,1.193-2.58,14.55,14.55,0,0,0,.468-4.019,12.443,12.443,0,0,0-.7-4.129,9.716,9.716,0,0,0-1.578-2.844,11.807,11.807,0,0,0-3.008-2.826A13.214,13.214,0,0,0,183,1.636a13.931,13.931,0,0,0-3.387-.5,20.164,20.164,0,0,0-3.065.148,11.63,11.63,0,0,0-2.054.445,14.346,14.346,0,0,0-4.166,2.027,10.581,10.581,0,0,0-2.569,2.853,13.751,13.751,0,0,0-1.514,3.166,11.29,11.29,0,0,0-.449,3.33,12.246,12.246,0,0,0,.7,4.2,11.467,11.467,0,0,0,2.046,3.524,12.09,12.09,0,0,0,2.623,2.413,6.872,6.872,0,0,0,1.3.7,4.512,4.512,0,0,1-1.391,2.826,7.734,7.734,0,0,0,.827-.805,5.808,5.808,0,0,0,.683-.94,4.7,4.7,0,0,0,.679-2.241.136.136,0,0,0-.057-.114l-.009-.006a11.755,11.755,0,0,1-3.878-14.213,11.4,11.4,0,0,1,1.658-2.633,11.349,11.349,0,0,1,2.334-2.023A10.913,10.913,0,0,1,176.152,2.6a9.85,9.85,0,0,1,6.038.46,11.284,11.284,0,0,1,2.647,1.564,11.762,11.762,0,0,1,2.107,2.248A12.493,12.493,0,0,1,188.38,9.6c.144.5.33.982.43,1.49a11.429,11.429,0,0,1-.93,7.546l-.01.02a.576.576,0,0,0,.009.529,4.6,4.6,0,0,0,.8,1.059,5.8,5.8,0,0,0,.994.8,7.776,7.776,0,0,0,1.06.565l-.687.375a17.449,17.449,0,0,1-1.836.844,7.982,7.982,0,0,1-1.886.506,1.792,1.792,0,0,1-1.55-.385l0,0a.433.433,0,0,0-.748.192c-.078.353-.186.73-.3,1.089s-.251.718-.4,1.067a6.164,6.164,0,0,1-1,1.727,8.919,8.919,0,0,1-1.764-1.006,12.65,12.65,0,0,1-1.7-1.484l-.015-.016a.244.244,0,0,0-.416.127,1.988,1.988,0,0,1-1.253,1.288,8.225,8.225,0,0,1-1.955.56,20.106,20.106,0,0,1-2.057.231c-.691.044-1.385.061-2.08.042a20.069,20.069,0,0,0,4.176,0,8.547,8.547,0,0,0,2.068-.476,4.824,4.824,0,0,0,.958-.5,1.9,1.9,0,0,0,.52-.57,11.468,11.468,0,0,0,1.4,1.318,7.734,7.734,0,0,0,2.11,1.246.342.342,0,0,0,.372-.088l.008-.009a8.078,8.078,0,0,0,1.34-2.065q.257-.552.463-1.122s.106-.306.177-.523a2.13,2.13,0,0,0,.544.211,3.739,3.739,0,0,0,1.184.083,8.906,8.906,0,0,0,2.146-.5,18.439,18.439,0,0,0,1.975-.83,20.693,20.693,0,0,0,1.878-1.024.558.558,0,0,0-.154-1.015" transform="translate(-77.109 -0.524)" fill="#161615"/>
        </g>
      </g>
    </g>
    <g id="Groupe_23" data-name="Groupe 23" transform="translate(923.642 2966.863)">
      <g id="Groupe_22" data-name="Groupe 22" transform="translate(0 0)" clip-path="url(#clip-path-2)">
        <path id="Tracé_243" data-name="Tracé 243" d="M8.808,2.959c-1.65.186-1.794.248-2.1,1.877l-1.588,8.25c-.536,2.847-1.361,4.332-3.095,5.2A5.528,5.528,0,0,1,.165,18.8L0,18.161c2.145-.578,2.805-1.836,3.507-5.466L5.012,4.836c.31-1.651.186-1.691-1.65-1.877l.144-.578H8.952Z" transform="translate(0 -0.957)" fill="#161615"/>
        <path id="Tracé_244" data-name="Tracé 244" d="M21.92,12.464a6.623,6.623,0,0,1-2.888,5.508A4.944,4.944,0,0,1,16.5,18.8c-1.959,0-2.764-1.568-2.764-3.218A6.275,6.275,0,0,1,17.052,9.8a5.249,5.249,0,0,1,2.125-.557c1.732,0,2.743,1.135,2.743,3.218m-6.436,2.888c0,1.547.578,2.578,1.712,2.578,1.96,0,2.991-3.156,2.991-5.383,0-1.712-.743-2.434-1.733-2.434-2.063,0-2.97,3.115-2.97,5.239" transform="translate(-5.521 -3.718)" fill="#161615"/>
        <path id="Tracé_245" data-name="Tracé 245" d="M38.968,16.693A4.89,4.89,0,0,1,36.1,18.8c-.578,0-.825-.475-.454-2.352l.289-1.424a11.478,11.478,0,0,1-2.476,2.785,3.776,3.776,0,0,1-2.125.99c-.722,0-1.32-.887-1.32-2.558a7.608,7.608,0,0,1,2.291-5.363,6.057,6.057,0,0,1,3.939-1.63,13.733,13.733,0,0,1,2.393.351c-.371,1.3-1.094,4.476-1.485,6.807-.1.578-.062.8.1.8.248,0,.68-.268,1.423-1.031ZM35.234,14.98a7.271,7.271,0,0,0,1.2-2.475,18.163,18.163,0,0,0,.454-2.021,4.154,4.154,0,0,0-1.568-.33c-2.435,0-3.569,3.135-3.569,5.817,0,.825.227,1.361.639,1.361.64,0,1.547-.639,2.847-2.352" transform="translate(-12.069 -3.718)" fill="#161615"/>
        <path id="Tracé_246" data-name="Tracé 246" d="M51.5,13.9a4.683,4.683,0,0,1-2.949,2.042c-.537,0-.764-.536-.372-2.187.33-1.361.908-3.568,1.3-5.239.083-.392.062-.578-.062-.578a3.567,3.567,0,0,0-1.362.929l-.268-.536a5.96,5.96,0,0,1,3.032-1.939c.515,0,.536.7.165,2.228-.392,1.485-.888,3.568-1.259,5.033-.145.557-.145.784,0,.784a3.049,3.049,0,0,0,1.485-1.052Zm.578-10.809a1.138,1.138,0,0,1-1.093,1.2.883.883,0,0,1-.908-.928,1.2,1.2,0,0,1,1.155-1.217.852.852,0,0,1,.846.949" transform="translate(-19.214 -0.86)" fill="#161615"/>
        <path id="Tracé_247" data-name="Tracé 247" d="M60.753,12.954a5.021,5.021,0,0,1-2.991,2.125c-.516,0-.826-.413-.413-2.393.743-3.528,1.547-7.261,2.207-10.437.165-.826.1-.908-.639-.97-.227-.021-.6-.062-.764-.062l.124-.536A13.428,13.428,0,0,0,60.795.165,1.64,1.64,0,0,1,61.413,0c.186,0,.186.186.083.66-.929,3.96-1.939,8.663-2.62,12.108-.124.578-.1.764.062.764a3.153,3.153,0,0,0,1.505-1.093Z" transform="translate(-22.984 0)" fill="#161615"/>
        <path id="Tracé_248" data-name="Tracé 248" d="M69.517,12.954a5.02,5.02,0,0,1-2.991,2.125c-.516,0-.826-.413-.413-2.393.743-3.528,1.547-7.261,2.207-10.437.165-.826.1-.908-.639-.97-.227-.021-.6-.062-.764-.062l.124-.536A13.428,13.428,0,0,0,69.559.165,1.64,1.64,0,0,1,70.177,0c.186,0,.186.186.083.66-.929,3.96-1.939,8.663-2.62,12.108-.124.578-.1.764.062.764a3.153,3.153,0,0,0,1.505-1.093Z" transform="translate(-26.508 0)" fill="#161615"/>
        <path id="Tracé_249" data-name="Tracé 249" d="M76.957,18.8c-.99,0-2.331-.578-2.331-3.074a6.927,6.927,0,0,1,2.454-5.4,5.03,5.03,0,0,1,2.786-1.073A1.658,1.658,0,0,1,81.7,10.9c0,2.063-3.032,3.033-5.343,3.445-.02.248-.041.66-.041.866,0,1.2.331,2.352,1.609,2.352a4.592,4.592,0,0,0,3.053-1.63l.309.516A5.78,5.78,0,0,1,76.957,18.8m-.515-5.136c2.991-.536,3.693-1.485,3.713-2.434a.992.992,0,0,0-1.073-1.093c-.619,0-2.042.454-2.64,3.527" transform="translate(-30.008 -3.718)" fill="#161615"/>
        <path id="Tracé_250" data-name="Tracé 250" d="M88.634,11.206a4.973,4.973,0,0,1,2.723-1.959c.7,0,.639,1.093.248,2.867l-.124.557c1.114-1.9,2.537-3.424,3.362-3.424a.956.956,0,0,1,.949.928,1.957,1.957,0,0,1-.8,1.32c-.186.124-.351.124-.454,0-.227-.248-.433-.6-.68-.6-.475,0-1.486,1.464-1.96,2.31a19.821,19.821,0,0,0-1.505,5.177,11.549,11.549,0,0,0-1.506.413l-.145-.144c.5-1.9,1.217-5.033,1.505-6.539.227-1.155.166-1.34.022-1.34a3.094,3.094,0,0,0-1.342.949Z" transform="translate(-35.641 -3.718)" fill="#161615"/>
        <path id="Tracé_251" data-name="Tracé 251" d="M106.217,13.9a4.683,4.683,0,0,1-2.949,2.042c-.537,0-.764-.536-.372-2.187.33-1.361.908-3.568,1.3-5.239.083-.392.062-.578-.062-.578a3.571,3.571,0,0,0-1.362.929l-.268-.536a5.96,5.96,0,0,1,3.033-1.939c.515,0,.536.7.165,2.228-.392,1.485-.888,3.568-1.259,5.033-.145.557-.145.784,0,.784a3.049,3.049,0,0,0,1.485-1.052Zm.578-10.809a1.138,1.138,0,0,1-1.093,1.2.883.883,0,0,1-.908-.928,1.2,1.2,0,0,1,1.156-1.217.852.852,0,0,1,.845.949" transform="translate(-41.218 -0.86)" fill="#161615"/>
        <path id="Tracé_252" data-name="Tracé 252" d="M114.149,18.8c-.99,0-2.331-.578-2.331-3.074a6.927,6.927,0,0,1,2.454-5.4,5.03,5.03,0,0,1,2.786-1.073,1.658,1.658,0,0,1,1.836,1.65c0,2.063-3.032,3.033-5.343,3.445-.02.248-.041.66-.041.866,0,1.2.331,2.352,1.609,2.352a4.592,4.592,0,0,0,3.053-1.63l.309.516a5.78,5.78,0,0,1-4.332,2.352m-.515-5.136c2.991-.536,3.693-1.485,3.713-2.434a.992.992,0,0,0-1.073-1.093c-.619,0-2.042.454-2.64,3.527" transform="translate(-44.963 -3.718)" fill="#161615"/>
      </g>
    </g>
  </g>
</svg>
